<svg width="27" height="27" viewBox="0 0 27 27" fill="none" xmlns="http://www.w3.org/2000/svg">
<circle cx="13.5" cy="13.5" r="13.5" fill="white"/>
<path d="M13.9118 7.17937C13.6492 7.06498 13.3508 7.06498 13.0882 7.17937L8.61944 9.12579C8.24326 9.28964 7.99925 9.661 8.00282 10.0713C8.05912 16.5355 8.98261 17.7094 12.9282 20.3678C13.2724 20.5997 13.7276 20.5997 14.0718 20.3678C18.0173 17.7093 18.9409 16.5355 18.9972 10.0713C19.0008 9.661 18.7567 9.28964 18.3806 9.12579L13.9118 7.17937ZM13.5 10.0938C13.9747 10.0938 14.3594 10.4785 14.3594 10.9531L14.1875 14.0469C14.1875 14.4269 13.88 14.7344 13.5 14.7344C13.12 14.7344 12.8125 14.4269 12.8125 14.0469L12.6406 10.9531C12.6406 10.4785 13.0253 10.0938 13.5 10.0938ZM13.5 15.25C14.0693 15.25 14.5312 15.7119 14.5312 16.2812C14.5312 16.8506 14.0693 17.3125 13.5 17.3125C12.9307 17.3125 12.4688 16.8506 12.4688 16.2812C12.4688 15.7119 12.9307 15.25 13.5 15.25Z" fill="#FF83AF"/>
</svg>
