<?xml version="1.0" encoding="UTF-8"?>
<svg width="89px" height="25px" viewBox="0 0 89 25" version="1.1" xmlns="http://www.w3.org/2000/svg" xmlns:xlink="http://www.w3.org/1999/xlink">
    <!-- Generator: Sketch 58 (84663) - https://sketch.com -->
    <title>Artboard</title>
    <desc>Created with Sketch.</desc>
    <g id="Artboard" stroke="none" stroke-width="1" fill="none" fill-rule="evenodd">
        <g id="Fill-1" transform="translate(1.000000, 5.000000)" fill="#333333">
            <path d="M9.71316,6.30088 C9.71316,3.83513 8.31048,2.47477 6.18534,2.47477 C3.99636,2.47477 2.52992,4.15406 2.52992,6.30088 C2.52992,8.46895 4.06011,10.1056 6.18534,10.1056 C8.28923,10.1056 9.71316,8.6816 9.71316,6.30088 Z M2.27391,1.00812 L2.38017,3.04866 C3.20897,1.62462 4.69657,0.753052 6.37552,0.753052 C9.37206,0.837986 11.4548,2.92113 11.4548,6.25835 C11.4548,9.59558 9.41465,11.7424 6.2906,11.7424 C4.803,11.7424 3.18781,11.0622 2.3165,9.61683 L2.3165,16.4612 L0.616211,16.4612 L0.616211,1.00812 L2.27391,1.00812 Z" id="Shape"></path>
        </g>
        <g id="Fill-4" transform="translate(13.000000, 5.000000)" fill="#333333">
            <path d="M1.98264,6.30088 C1.98264,8.61783 3.68284,10.1482 5.76548,10.1482 C8.31565,10.1482 9.59082,8.21388 9.59082,6.25836 C9.59082,4.3241 8.31565,2.41109 5.76548,2.41109 C3.68284,2.41109 1.98264,3.83513 1.98264,6.30088 Z M9.54825,9.63809 C8.71945,11.0622 7.12559,11.7424 5.6805,11.7424 C2.66271,11.7424 0.303711,9.65926 0.303711,6.23719 C0.303711,2.6874 2.72655,0.753052 5.70175,0.753052 C7.35936,0.753052 8.78329,1.41198 9.59084,2.89987 L9.61209,0.986864 L11.3122,0.986864 L11.3122,11.4873 L9.59084,11.4873 L9.54825,9.63809 Z" id="Shape"></path>
        </g>
        <g id="Fill-6" transform="translate(25.000000, 5.000000)" fill="#333333">
            <polygon id="Path" points="2.58319 16.4613 4.79343 11.3386 0.542969 0.986786 2.54078 0.986786 4.60208 6.42841 5.77099 9.4468 6.87607 6.44966 9.19265 0.986786 11.1053 0.986786 4.49591 16.4613"></polygon>
        </g>
        <g id="Fill-8" transform="translate(37.000000, 2.000000)" fill="#000000">
            <path d="M4.52395,0.989716 L4.52395,4.02936 L7.58433,4.02936 L7.58433,5.9212 L4.50288,5.9212 L4.50288,10.9163 C4.50288,12.0217 4.99157,12.6381 6.01173,12.6381 C6.43667,12.6381 6.92554,12.4894 7.35057,12.2766 L7.98811,14.1473 C7.26547,14.4661 6.62802,14.6149 5.88404,14.6149 C3.61023,14.6787 2.31389,13.382 2.31389,10.9163 L2.31389,5.9212 L0.294922,5.9212 L0.294922,4.02936 L2.31389,4.02936 L2.31389,1.22353 L4.52395,0.989716 Z" id="Path"></path>
        </g>
        <g id="Fill-10" transform="translate(46.000000, 5.000000)" fill="#000000">
            <path d="M2.28249,5.96084 C2.28249,8.04389 3.85518,9.17044 5.74656,9.17044 C7.68052,9.17044 9.14687,7.85259 9.14687,5.96084 C9.14687,3.89896 7.55293,2.72981 5.74656,2.72981 C3.96144,2.72981 2.28249,3.77142 2.28249,5.96084 Z M9.72076,0.00900269 L11.3146,1.24192 L10.0607,2.70865 C10.9321,3.72892 11.3359,4.66417 11.3359,5.96085 C11.3359,7.81009 10.422,9.31924 8.55184,10.042 C10.6982,10.7646 11.3146,12.2102 11.3146,13.4642 C11.3146,16.3126 8.50925,17.7367 5.70407,17.7367 C2.2825,17.7367 0.093517,15.9937 0.178611,13.0815 L2.3676,13.0815 C2.30375,14.7183 3.96145,15.5898 5.70407,15.6111 C7.31917,15.6111 9.04063,14.9522 9.04063,13.4642 C9.04063,11.9975 7.7017,11.1897 5.74657,11.1897 C2.34634,11.1897 0.0722656,9.23431 0.0722656,5.96085 C0.0722656,2.45349 2.89888,0.689272 5.74657,0.689272 C6.61788,0.689272 7.82921,0.901828 8.5731,1.41196 L9.72076,0.00900269 Z" id="Shape"></path>
        </g>
        <g id="Fill-12" transform="translate(58.000000, 2.000000)" fill="#000000">
            <path d="M5.13723,0.989716 L5.13723,4.02936 L8.19761,4.02936 L8.19761,5.9212 L5.11607,5.9212 L5.11607,10.9163 C5.11607,12.0217 5.60476,12.6381 6.62501,12.6381 C7.04995,12.6381 7.53873,12.4894 7.96385,12.2766 L8.6013,14.1473 C7.87875,14.4661 7.24121,14.6149 6.49732,14.6149 C4.22342,14.6787 2.92709,13.382 2.92709,10.9163 L2.92709,5.9212 L0.908203,5.9212 L0.908203,4.02936 L2.92709,4.02936 L2.92709,1.22353 L5.13723,0.989716 Z" id="Path"></path>
        </g>
        <g id="Fill-14" transform="translate(68.000000, 1.000000)" fill="#000000">
            <path d="M2.59621,0.608032 L2.59621,6.55988 C3.50993,5.28445 4.7426,4.85925 5.99644,4.85925 C8.95047,4.85925 10.3106,6.8362 10.3106,9.83334 L10.3106,15.4873 L8.12158,15.4873 L8.12158,9.85442 C8.12158,7.87773 7.1016,6.89988 5.4864,6.89988 C3.7862,6.89988 2.59621,8.30284 2.59621,10.0245 L2.59621,15.4873 L0.407227,15.4873 L0.407227,0.608032 L2.59621,0.608032 Z" id="Path"></path>
        </g>
        <g id="Fill-16" transform="translate(80.000000, 5.000000)" fill="#000000">
            <path d="M2.17685,1.0081 L2.3257,2.38981 C3.09066,1.05062 4.28074,0.774292 5.40707,0.774292 C6.42731,0.774292 7.40479,1.13564 7.99992,1.66703 L7.00092,3.58013 C6.46964,3.15492 5.95969,2.94246 5.15214,2.94246 C3.64329,2.94246 2.3257,3.8777 2.3257,5.81206 L2.3257,11.4873 L0.136719,11.4873 L0.136719,1.0081 L2.17685,1.0081 Z" id="Path"></path>
        </g>
    </g>
</svg>