<svg width="564" height="700" viewBox="0 0 564 700" fill="none" xmlns="http://www.w3.org/2000/svg">
<circle opacity="0.1" cx="316.5" cy="407.5" r="192.5" fill="white"/>
<circle opacity="0.2" cx="113" cy="239" r="41" fill="white"/>
<path d="M178.339 535.539H398.495C432.13 505.375 453.286 461.534 453.286 412.817C453.286 321.747 379.487 247.948 288.417 247.948C197.347 247.948 123.548 321.747 123.548 412.817C123.548 461.534 144.704 505.334 178.339 535.539Z" fill="#964CFF"/>
<path d="M312.094 458.89C311.309 458.89 310.524 458.724 309.738 458.394C306.681 457.072 305.276 453.559 306.598 450.543L332.176 390.959L293.128 389.141C289.822 388.975 287.26 386.166 287.425 382.86C287.591 379.554 290.4 376.992 293.706 377.158L333.828 379.017C337.506 379.182 340.853 381.166 342.836 384.265C344.778 387.405 345.109 391.289 343.621 394.636L317.631 455.212C316.639 457.526 314.449 458.89 312.094 458.89Z" fill="#7792F7"/>
<path d="M388 250.841L306.185 235.18C303.83 234.726 302.26 232.453 302.714 230.057L312.548 178.778C313.003 176.423 315.275 174.852 317.672 175.307L399.487 190.967C401.842 191.422 403.412 193.695 402.958 196.091L393.123 247.37C392.669 249.766 390.355 251.295 388 250.841Z" fill="white"/>
<path d="M401.66 202.682L311.277 185.373L309.187 196.291L399.57 213.6L401.66 202.682Z" fill="#964CFF"/>
<path d="M380.521 238.692L365.893 235.883C364.075 235.552 362.877 233.775 363.249 231.957L364.901 223.239C365.232 221.42 367.009 220.222 368.827 220.594L383.454 223.404C385.272 223.734 386.471 225.511 386.099 227.329L384.446 236.048C384.074 237.825 382.339 239.023 380.521 238.692Z" fill="#964CFF"/>
<path d="M283.087 231.833L200.942 245.552C198.545 245.965 196.314 244.354 195.901 241.957L187.306 190.472C186.893 188.075 188.504 185.844 190.901 185.431L273.046 171.712C275.443 171.299 277.674 172.91 278.087 175.307L286.682 226.792C287.095 229.189 285.483 231.42 283.087 231.833Z" fill="white"/>
<path d="M279.184 181.884L188.414 197.031L190.244 207.995L281.013 192.848L279.184 181.884Z" fill="#964CFF"/>
<path d="M271.848 222.991L257.138 225.428C255.319 225.718 253.584 224.519 253.295 222.66L251.849 213.941C251.559 212.123 252.758 210.388 254.617 210.099L269.327 207.661C271.145 207.371 272.881 208.57 273.17 210.429L274.616 219.148C274.905 220.966 273.666 222.701 271.848 222.991Z" fill="#964CFF"/>
<path d="M306.516 491.533L310.565 463.435" stroke="#5B27AD" stroke-width="3.30564" stroke-miterlimit="10" stroke-linecap="round"/>
<path d="M181.934 344.804C180.488 337.366 178.711 330.424 176.81 324.35C172.224 324.35 171.273 318.648 174.042 316.375C170.282 306.789 166.356 301.004 163.299 301.583C158.629 302.492 157.596 318.111 160.489 338.275C160.654 338.234 160.861 338.192 161.067 338.192C163.299 338.192 163.299 341.663 161.067 341.663C161.026 341.663 161.026 341.663 160.985 341.663C161.357 343.977 161.77 346.291 162.224 348.688C167.1 373.604 175.447 392.983 180.901 391.909C186.314 390.835 186.81 369.761 181.934 344.804Z" fill="#6ACFA7"/>
<path d="M174.154 387.667C177.278 385.647 172.34 372.45 163.124 358.19C153.908 343.93 143.904 334.006 140.78 336.025C137.656 338.044 142.594 351.242 151.81 365.502C161.026 379.762 171.03 389.686 174.154 387.667Z" fill="#97F2CB"/>
<path d="M169.134 383.366C171.036 380.885 163.357 371.805 151.982 363.086C140.607 354.367 129.844 349.31 127.942 351.791C126.04 354.273 133.719 363.353 145.094 372.072C156.468 380.791 167.232 385.848 169.134 383.366Z" fill="#6ACFA7"/>
<path d="M306.805 498.805C312.099 498.805 316.391 494.513 316.391 489.219C316.391 483.924 312.099 479.632 306.805 479.632C301.51 479.632 297.218 483.924 297.218 489.219C297.218 494.513 301.51 498.805 306.805 498.805Z" fill="#964CFF" stroke="#5B27AD" stroke-width="5.78487" stroke-miterlimit="10"/>
<path d="M387.628 380.959C387.628 380.959 385.975 392.157 398.495 397.446" stroke="#3F2070" stroke-width="5.37167" stroke-miterlimit="10" stroke-linecap="round"/>
<path d="M432.213 382.777L427.998 401.826C427.998 401.826 390.438 422.734 390.438 401.826C390.438 380.918 413.329 396.206 413.329 386.248C413.329 380.959 432.213 382.777 432.213 382.777Z" fill="white"/>
<path opacity="0.2" d="M400.024 489.838L438.782 471.162C434.609 462.732 427.667 455.956 419.114 451.989L400.024 489.838Z" fill="white"/>
<path opacity="0.2" d="M402.916 488.599L364.158 507.276C368.331 515.705 375.273 522.482 383.826 526.448L402.916 488.599Z" fill="white"/>
<path opacity="0.2" d="M179.744 489.838L218.503 471.162C214.329 462.732 207.388 455.956 198.834 451.989L179.744 489.838Z" fill="white"/>
<path opacity="0.2" d="M182.637 488.599L143.878 507.276C148.051 515.705 154.993 522.482 163.547 526.448L182.637 488.599Z" fill="white"/>
<path d="M132.804 536.324C137.003 536.324 140.407 532.92 140.407 528.721C140.407 524.522 137.003 521.118 132.804 521.118C128.605 521.118 125.201 524.522 125.201 528.721C125.201 532.92 128.605 536.324 132.804 536.324Z" fill="#643FA0"/>
<path d="M120.821 516.945C124.929 516.945 128.259 513.615 128.259 509.507C128.259 505.399 124.929 502.069 120.821 502.069C116.713 502.069 113.383 505.399 113.383 509.507C113.383 513.615 116.713 516.945 120.821 516.945Z" fill="#643FA0"/>
<path d="M105.78 529.465C109.318 529.465 112.185 526.597 112.185 523.06C112.185 519.523 109.318 516.656 105.78 516.656C102.243 516.656 99.3758 519.523 99.3758 523.06C99.3758 526.597 102.243 529.465 105.78 529.465Z" fill="#643FA0"/>
<path d="M92.2687 510.457C94.7562 510.457 96.7726 508.441 96.7726 505.954C96.7726 503.466 94.7562 501.45 92.2687 501.45C89.7813 501.45 87.7648 503.466 87.7648 505.954C87.7648 508.441 89.7813 510.457 92.2687 510.457Z" fill="#643FA0"/>
<path d="M192.76 536.324C193.958 534.341 166.522 530.704 164.332 529.465C157.472 525.539 155.489 516.16 148.134 516.16C140.779 516.16 134.829 522.11 134.829 529.465C134.829 531.985 135.531 534.299 136.73 536.324H192.76Z" fill="#643FA0"/>
<path d="M207.718 387.777L249.452 512.565" stroke="#C15F38" stroke-width="11.9829" stroke-miterlimit="10" stroke-linecap="round"/>
<path d="M241.642 508.763L246.89 525.498L265.65 518.598C269.988 517.027 270.236 510.995 266.063 509.053C264.451 508.309 262.716 507.648 260.856 507.193C252.799 505.21 253.749 503.846 253.749 503.846C253.749 503.846 248.626 503.846 247.923 509.838C245.279 510.871 241.642 508.763 241.642 508.763Z" fill="#C6A1FC"/>
<path d="M246.931 525.539L271.31 516.738" stroke="#5B27AD" stroke-width="3.71885" stroke-miterlimit="10" stroke-linecap="round"/>
<path opacity="0.27" d="M181.273 526.366C201.629 526.366 218.131 509.864 218.131 489.508C218.131 469.152 201.629 452.65 181.273 452.65C160.917 452.65 144.415 469.152 144.415 489.508C144.415 509.864 160.917 526.366 181.273 526.366Z" stroke="#643FA0" stroke-width="3.30564" stroke-miterlimit="10" stroke-linecap="round"/>
<path d="M181.273 530.911C204.139 530.911 222.676 512.374 222.676 489.508C222.676 466.642 204.139 448.105 181.273 448.105C158.407 448.105 139.87 466.642 139.87 489.508C139.87 512.374 158.407 530.911 181.273 530.911Z" stroke="white" stroke-width="5.37167" stroke-miterlimit="10" stroke-linecap="round"/>
<path d="M233.13 331.746L221.478 385.794C220.114 392.157 213.834 396.206 207.47 394.843C201.52 393.562 197.595 387.942 198.256 381.992L204.454 327.036C205.363 319.02 212.594 313.276 220.569 314.185C228.585 315.094 234.329 322.325 233.42 330.3C233.337 330.796 233.254 331.292 233.13 331.746Z" fill="#FAC46C"/>
<path d="M243.171 293.236C261.187 264.931 245.113 237.412 245.113 237.412" stroke="#C15F38" stroke-width="10.7433" stroke-miterlimit="10" stroke-linecap="round"/>
<path d="M221.271 304.475L217.305 314.64C216.23 317.45 217.305 320.59 219.825 322.119C222.511 323.73 226.023 322.987 227.8 320.383L233.172 312.656L221.271 304.475Z" fill="#C15F38"/>
<path d="M309.325 443.436L301.144 458.972L319.242 467.443C323.416 469.385 327.878 465.335 326.308 460.997C325.688 459.344 324.944 457.65 323.953 455.997C319.655 448.89 321.35 448.601 321.35 448.601C321.35 448.601 317.755 444.964 313.003 448.683C310.4 447.485 309.325 443.436 309.325 443.436Z" fill="#FAC46C"/>
<path d="M301.144 458.972L324.573 470.129" stroke="#5B27AD" stroke-width="3.30564" stroke-miterlimit="10" stroke-linecap="round"/>
<path d="M206.52 389.884L243.626 390.917C247.262 391.207 249.535 395.008 248.006 398.355L220.28 458.146" stroke="#D66B49" stroke-width="11.9829" stroke-miterlimit="10" stroke-linecap="round"/>
<path d="M215.776 452.154C211.809 458.972 213.338 469.55 213.338 469.55L233.254 471.368C237.841 471.781 240.692 466.451 237.717 462.897C236.601 461.534 235.279 460.17 233.833 459.013C228.626 454.799 229.453 452.65 229.453 452.65C229.453 452.65 224.246 450.749 221.065 455.832C218.131 455.625 217.924 448.477 215.776 452.154Z" fill="#C6A1FC"/>
<path d="M212.635 469.55L239.122 472.112" stroke="#5B27AD" stroke-width="3.71885" stroke-miterlimit="10" stroke-linecap="round"/>
<path d="M298.623 317.739C298.623 317.739 334.2 294.103 341.225 236.503" stroke="#FC97C1" stroke-width="12.3962" stroke-miterlimit="10" stroke-linecap="round"/>
<path d="M321.06 286.748C319.16 289.93 317.259 292.74 315.482 295.178C306.516 307.367 298.21 313.069 298.045 313.152C295.028 315.177 294.202 319.268 296.227 322.325C297.508 324.226 299.615 325.259 301.722 325.259C302.962 325.259 304.243 324.887 305.359 324.143C305.772 323.895 315.317 317.449 325.688 303.566C327.754 300.756 329.986 297.533 332.176 293.855C328.498 291.5 324.821 289.021 321.06 286.748Z" fill="#482193"/>
<path d="M308.54 327.986C306.516 331.54 304.739 335.424 303.293 339.597C301.846 343.771 300.731 348.233 299.863 352.861C298.995 357.489 298.417 362.282 298.045 367.117C297.673 371.993 297.549 376.951 297.549 381.951V382.116C297.549 389.76 291.351 395.958 283.707 396C276.517 396 270.608 390.504 269.906 383.521C269.368 377.901 268.955 372.24 268.831 366.456C268.707 360.712 268.831 354.845 269.327 348.936C269.823 343.027 270.732 336.994 272.137 330.92C273.583 324.846 275.566 318.772 278.252 312.78L278.335 312.574C282.178 304.062 292.219 300.26 300.731 304.103C309.243 307.946 313.044 317.987 309.201 326.499C309.077 326.994 308.829 327.532 308.54 327.986Z" fill="#5B27AD"/>
<path d="M181.19 496.863C185.412 496.863 188.835 493.44 188.835 489.219C188.835 484.997 185.412 481.574 181.19 481.574C176.969 481.574 173.546 484.997 173.546 489.219C173.546 493.44 176.969 496.863 181.19 496.863Z" fill="white"/>
<path d="M401.842 496.863C406.064 496.863 409.486 493.44 409.486 489.219C409.486 484.997 406.064 481.574 401.842 481.574C397.62 481.574 394.198 484.997 394.198 489.219C394.198 493.44 397.62 496.863 401.842 496.863Z" fill="white"/>
<path d="M181.066 408.644H159.828C155.53 408.644 152.059 405.173 152.059 400.876V380.959H188.835V400.876C188.835 405.132 185.364 408.644 181.066 408.644Z" fill="#C6A1FC"/>
<path d="M105.781 534.878H256.6" stroke="#643FA0" stroke-width="5.78487" stroke-miterlimit="10" stroke-linecap="round"/>
<path d="M372.504 535.084H432.832" stroke="#643FA0" stroke-width="5.78487" stroke-miterlimit="10" stroke-linecap="round"/>
<path d="M336.142 535.084H356.679" stroke="#643FA0" stroke-width="5.78487" stroke-miterlimit="10" stroke-linecap="round"/>
<path opacity="0.27" d="M401.925 526.366C422.281 526.366 438.783 509.864 438.783 489.508C438.783 469.152 422.281 452.65 401.925 452.65C381.569 452.65 365.067 469.152 365.067 489.508C365.067 509.864 381.569 526.366 401.925 526.366Z" stroke="#643FA0" stroke-width="3.30564" stroke-miterlimit="10" stroke-linecap="round"/>
<path d="M320.358 450.915L309.573 447.733C308.251 447.361 307.507 445.956 307.879 444.634L309.367 439.634C309.739 438.312 311.143 437.568 312.466 437.94L323.25 441.122C324.573 441.493 325.316 442.898 324.944 444.221L323.457 449.22C323.044 450.543 321.68 451.286 320.358 450.915Z" fill="#6580CE"/>
<path d="M401.925 530.911C424.791 530.911 443.328 512.374 443.328 489.508C443.328 466.642 424.791 448.105 401.925 448.105C379.058 448.105 360.521 466.642 360.521 489.508C360.521 512.374 379.058 530.911 401.925 530.911Z" stroke="white" stroke-width="5.37167" stroke-miterlimit="10" stroke-linecap="round"/>
<path d="M346.473 396.248H357.712C368.414 396.248 377.793 403.396 380.686 413.685L401.842 489.632" stroke="#5B27AD" stroke-width="5.78487" stroke-miterlimit="10" stroke-linecap="round"/>
<path d="M343.787 448.105H237.014" stroke="#5B27AD" stroke-width="5.78487" stroke-miterlimit="10" stroke-linecap="round"/>
<path d="M147.514 409.264H215.28" stroke="#5B27AD" stroke-width="5.78487" stroke-miterlimit="10" stroke-linecap="round"/>
<path d="M269.079 409.264H316.019" stroke="#5B27AD" stroke-width="5.78487" stroke-miterlimit="10" stroke-linecap="round"/>
<path d="M160.53 411.33L181.356 489.839H304.078C328.374 489.839 330.068 477.36 337.506 458.807C337.547 458.766 337.547 458.683 337.589 458.642C344.861 441.865 362.05 428.808 383.537 423.974" stroke="#5B27AD" stroke-width="5.78487" stroke-miterlimit="10" stroke-linecap="round"/>
<path d="M418.37 424.139H399.982C395.107 424.139 390.851 420.875 389.57 416.164L383.454 393.562H432.212L429.031 414.925C428.246 420.214 423.7 424.139 418.37 424.139Z" fill="#FAC46C"/>
<path d="M298.499 288.443L293.954 301.459C292.714 305.054 294.243 309.02 297.59 310.797C301.144 312.698 305.565 311.541 307.755 308.153L314.242 298.112L298.499 288.443Z" fill="#F985BA"/>
<path d="M315.647 307.45C329.979 307.45 341.597 295.832 341.597 281.501C341.597 267.169 329.979 255.551 315.647 255.551C301.316 255.551 289.698 267.169 289.698 281.501C289.698 295.832 301.316 307.45 315.647 307.45Z" fill="#FC97C1"/>
<path d="M301.516 282.203L305.111 281.872C305.069 281.583 305.028 281.253 305.028 280.963C304.739 274.6 309.697 269.187 316.061 268.898L337.754 267.948C332.795 259.849 323.54 254.766 313.292 255.675C299.78 256.874 289.367 268.567 289.698 282.162C289.822 287.038 291.268 291.5 293.665 295.343C293.706 295.343 293.747 295.343 293.747 295.343C294.285 296.211 294.904 297.078 295.566 297.864L294.863 282.451L301.433 282.162L301.516 282.203Z" fill="#3F2070"/>
<path d="M316.722 282.865C317.703 282.865 318.498 282.069 318.498 281.088C318.498 280.107 317.703 279.311 316.722 279.311C315.74 279.311 314.945 280.107 314.945 281.088C314.945 282.069 315.74 282.865 316.722 282.865Z" fill="#3F2070"/>
<path d="M334.159 281.294C335.14 281.294 335.936 280.499 335.936 279.518C335.936 278.536 335.14 277.741 334.159 277.741C333.178 277.741 332.382 278.536 332.382 279.518C332.382 280.499 333.178 281.294 334.159 281.294Z" fill="#3F2070"/>
<path d="M300.731 276.832C301.64 280.096 302.26 286.129 299.739 286.831C297.218 287.534 292.549 282.658 291.64 279.393C290.731 276.129 292.012 272.906 294.533 272.204C297.012 271.501 299.822 273.567 300.731 276.832Z" fill="#FC97C1"/>
<path d="M316.474 294.434C318.209 297.864 321.887 299.682 325.977 299.31C330.068 298.938 333.126 295.715 333.374 292.947C331.184 292.657 328.457 292.864 326.143 293.029C320.936 293.401 316.474 294.434 316.474 294.434Z" fill="white"/>
<path d="M313.003 267.245C313.251 267.287 321.019 279.311 350.067 269.725C342.051 256.833 326.928 254.395 313.292 255.634C299.656 256.874 313.003 267.245 313.003 267.245Z" fill="#3F2070"/>
<path d="M290.979 323.028C300.979 359.803 351.803 398.52 351.803 398.52" stroke="#FC97C1" stroke-width="12.3962" stroke-miterlimit="10" stroke-linecap="round"/>
<path d="M257.509 306.045C260.316 306.045 262.592 303.77 262.592 300.963C262.592 298.156 260.316 295.88 257.509 295.88C254.702 295.88 252.427 298.156 252.427 300.963C252.427 303.77 254.702 306.045 257.509 306.045Z" fill="white"/>
<path d="M230.403 277.121C231.477 276.584 232.221 275.592 233.213 274.848C235.568 272.989 234.535 273.319 237.014 271.79C244.535 267.162 253.171 268.609 257.468 271.914C268.542 280.344 256.559 305.591 251.187 309.227C242.138 315.384 230.238 304.516 228.957 294.269C228.172 288.029 227.139 282.616 230.403 277.121Z" fill="#3F2070"/>
<path d="M241.973 276.212C241.766 267.287 230.238 265.345 225.073 266.336C214.04 268.526 215.073 275.592 203.958 272.369C193.752 269.435 187.512 261.708 177.058 270.096C169.869 275.84 165.241 288.401 171.397 297.492C178.629 308.153 184.496 297.905 193.793 299.558C202.264 301.045 206.107 309.599 215.486 309.186C226.974 308.69 252.675 294.723 241.973 276.212Z" fill="#3F2070"/>
<path d="M237.014 317.119C249.223 317.119 259.121 307.222 259.121 295.013C259.121 282.804 249.223 272.906 237.014 272.906C224.805 272.906 214.908 282.804 214.908 295.013C214.908 307.222 224.805 317.119 237.014 317.119Z" fill="#D66B49"/>
<path d="M233.419 302.946C235.031 306.128 238.956 307.905 242.675 307.285C246.559 306.624 248.708 305.054 248.997 301.294C245.278 300.839 235.981 301.294 233.419 302.946Z" fill="white"/>
<path d="M253.005 288.484C252.881 287.988 252.51 287.534 251.972 287.41C251.229 287.203 250.444 287.658 250.196 288.401" stroke="#3F2070" stroke-width="0.82641" stroke-miterlimit="10" stroke-linecap="round"/>
<path d="M235.733 288.856C235.527 288.36 235.072 288.03 234.535 287.988C233.75 287.947 233.048 288.526 233.006 289.311" stroke="#3F2070" stroke-width="0.82641" stroke-miterlimit="10" stroke-linecap="round"/>
<path d="M252.427 296.541C257.196 296.541 261.063 292.675 261.063 287.906C261.063 283.136 257.196 279.27 252.427 279.27C247.657 279.27 243.791 283.136 243.791 287.906C243.791 292.675 247.657 296.541 252.427 296.541Z" fill="#FF75A7"/>
<path d="M242.138 271.997C242.138 271.997 237.676 283.567 227.593 283.154C217.511 282.741 214.867 293.608 214.867 293.608L207.966 288.443C207.966 288.443 207.883 275.799 209.495 275.055C211.148 274.311 220.073 270.716 220.073 270.716L227.552 269.27L242.138 271.997Z" fill="#3F2070"/>
<path d="M233.502 296.955C238.272 296.955 242.138 293.088 242.138 288.319C242.138 283.549 238.272 279.683 233.502 279.683C228.733 279.683 224.866 283.549 224.866 288.319C224.866 293.088 228.733 296.955 233.502 296.955Z" fill="#FF75A7"/>
<path d="M217.892 300.484C219.36 299.016 218.994 296.269 217.074 294.348C215.154 292.428 212.407 292.062 210.938 293.53C209.47 294.999 209.836 297.746 211.756 299.666C213.677 301.586 216.424 301.952 217.892 300.484Z" fill="#E27C54"/>
<path d="M238.461 309.186C238.461 309.186 242.841 310.921 245.113 308.814" stroke="#BD5829" stroke-width="0.82641" stroke-miterlimit="10" stroke-linecap="round"/>
<path d="M214.867 308.194C217.674 308.194 219.949 305.919 219.949 303.112C219.949 300.305 217.674 298.029 214.867 298.029C212.06 298.029 209.784 300.305 209.784 303.112C209.784 305.919 212.06 308.194 214.867 308.194Z" fill="white"/>
<path d="M199.743 362.076C200.57 362.613 228.709 365.133 228.172 366.497C227.635 367.861 225.899 383.852 225.899 383.852L246.931 386.207L249.204 386.455C254.824 387.075 258.377 392.777 256.518 398.107L245.072 430.833H197.512C197.512 430.833 207.718 422.693 204.826 410.503C203.173 403.437 199.826 394.306 197.14 386.413C196.314 383.976 196.107 381.331 196.603 378.81L199.743 362.076Z" fill="white"/>
<path d="M236.023 396.454H247.262C257.964 396.454 267.344 403.603 270.236 413.891L291.31 489.219" stroke="#5B27AD" stroke-width="5.78487" stroke-miterlimit="10" stroke-linecap="round"/>
<path d="M209.826 321.168L249.7 396.454" stroke="#D66B49" stroke-width="12.8094" stroke-miterlimit="10" stroke-linecap="round"/>
<path d="M434.65 374.802C429.155 374.802 426.138 372.282 424.155 370.588C422.626 369.307 422.213 369.017 420.849 369.017C419.486 369.017 419.073 369.307 417.544 370.588C415.56 372.241 412.544 374.802 407.048 374.802C401.553 374.802 398.536 372.282 396.553 370.588C395.024 369.307 394.776 368.935 393.289 368.108C390.603 366.621 387.669 366.497 387.669 363.439C387.669 360.382 390.148 357.861 393.247 357.861C398.743 357.861 401.759 360.382 403.743 362.076C405.272 363.357 405.685 363.646 407.048 363.646C408.412 363.646 408.825 363.357 410.354 362.076C412.337 360.423 415.354 357.861 420.849 357.861C426.345 357.861 429.361 360.382 431.345 362.076C432.874 363.357 433.287 363.646 434.65 363.646C436.014 363.646 436.427 363.357 437.956 362.076C439.94 360.423 442.956 357.861 448.452 357.861C451.551 357.861 454.03 360.34 454.03 363.439C454.03 366.538 451.551 369.017 448.452 369.017C447.088 369.017 446.675 369.307 445.146 370.588C443.163 372.282 440.146 374.802 434.65 374.802Z" fill="white"/>
<path d="M419.403 357.861H465.228C465.228 357.861 470.021 380.959 453.286 380.959C436.551 380.959 413.329 380.959 413.329 380.959L419.403 357.861Z" fill="white"/>
<path d="M420.849 359.142C420.849 366.497 426.799 372.447 434.155 372.447C441.51 372.447 447.46 366.497 447.46 359.142C447.46 358.687 447.418 358.274 447.377 357.861H420.849C420.849 358.274 420.849 358.687 420.849 359.142Z" fill="#3F2070"/>
<path d="M437.543 364.803C438.661 364.803 439.568 363.896 439.568 362.778C439.568 361.66 438.661 360.753 437.543 360.753C436.425 360.753 435.518 361.66 435.518 362.778C435.518 363.896 436.425 364.803 437.543 364.803Z" fill="white"/>
<path d="M435.518 380.959H410.602V386.289H435.518V380.959Z" fill="#FF75A7"/>
<path d="M465.93 363.811C467.619 363.811 468.988 362.442 468.988 360.753C468.988 359.065 467.619 357.696 465.93 357.696C464.241 357.696 462.872 359.065 462.872 360.753C462.872 362.442 464.241 363.811 465.93 363.811Z" fill="#3F2070"/>
<path d="M445.807 376.827C446.303 378.439 447.79 379.637 449.526 379.637C451.261 379.637 452.79 378.48 453.245 376.827H445.807Z" fill="#3F2070"/>
<path d="M181.521 213.942H211.189" stroke="white" stroke-width="4.95846" stroke-miterlimit="10" stroke-linecap="round"/>
<path d="M296.681 208.611H343.126" stroke="white" stroke-width="4.95846" stroke-miterlimit="10" stroke-linecap="round"/>
<path d="M86.1533 422.775L144.456 423.188" stroke="#964CFF" stroke-width="5.78487" stroke-miterlimit="10" stroke-linecap="round"/>
<path d="M107.929 471.203L123.631 471.616" stroke="#964CFF" stroke-width="5.78487" stroke-miterlimit="10" stroke-linecap="round"/>
<path d="M87.7648 428.973L146.027 429.387" stroke="#F577BE" stroke-width="5.78487" stroke-miterlimit="10" stroke-linecap="round"/>
<path d="M175.571 231.131H183.918" stroke="white" stroke-width="4.54526" stroke-miterlimit="10" stroke-linecap="round"/>
<path d="M184.827 218.446H214.536" stroke="#F577BE" stroke-width="3.30564" stroke-miterlimit="10" stroke-linecap="round"/>
<path d="M303.871 213.115H317.052" stroke="#F577BE" stroke-width="3.30564" stroke-miterlimit="10" stroke-linecap="round"/>
<path d="M139.498 391.909H164.621" stroke="#C6A1FC" stroke-width="5.78487" stroke-miterlimit="10" stroke-linecap="round"/>
<path d="M139.498 397.611H164.621" stroke="#964CFF" stroke-width="5.78487" stroke-miterlimit="10" stroke-linecap="round"/>
<path d="M258.212 521.449L228.75 470.831" stroke="#5B27AD" stroke-width="3.30564" stroke-miterlimit="10" stroke-linecap="round"/>
<path d="M239.783 498.805C245.077 498.805 249.369 494.513 249.369 489.219C249.369 483.924 245.077 479.632 239.783 479.632C234.488 479.632 230.197 483.924 230.197 489.219C230.197 494.513 234.488 498.805 239.783 498.805Z" fill="#964CFF" stroke="#5B27AD" stroke-width="5.78487" stroke-miterlimit="10"/>
<path d="M300.235 352.902C300.772 350.093 301.392 347.324 302.094 344.68C297.466 339.101 284.74 324.763 284.74 324.763L296.64 372.406C296.64 372.406 297.094 370.753 297.714 372.488C297.797 370.753 298.251 368.935 298.417 367.199C298.789 362.282 299.367 357.489 300.235 352.902Z" fill="#482193"/>
<path d="M311.887 347.944C304.656 337.944 299.78 328.606 297.508 320.259C296.516 316.623 292.797 314.516 289.161 315.507C285.525 316.499 283.417 320.218 284.409 323.854C287.384 334.845 293.747 346.704 303.334 359.307C305.937 355.299 308.706 351.497 311.887 347.944Z" fill="#5B27AD"/>
<path d="M313.871 352.779L305.028 360.134C304.243 360.795 303.045 360.671 302.425 359.886L299.202 356.043C298.541 355.258 298.665 354.06 299.45 353.44L308.292 346.085C309.077 345.424 310.276 345.547 310.895 346.333L314.118 350.175C314.78 350.96 314.656 352.117 313.871 352.779Z" fill="#C6A1FC"/>
<path d="M298.004 372.447H269.079C269.286 376.207 269.575 379.926 269.906 383.604C270.608 390.669 276.599 396.206 283.831 396.206C291.558 396.206 297.797 389.926 297.797 382.24V382.075C297.756 378.852 297.838 375.629 298.004 372.447Z" fill="#94A6FF"/>
<path d="M316.97 507.606L282.095 384.595C281.186 381.414 277.88 379.554 274.699 380.463C271.517 381.372 269.658 384.678 270.567 387.86L305.565 511.325L316.97 507.606Z" fill="#94A6FF"/>
<path d="M298.004 370.381H269.079V374.802H298.004V370.381Z" fill="#3F2070"/>
<path d="M294.615 375.216H290.979C290.153 375.216 289.491 374.555 289.491 373.728V371.662C289.491 370.836 290.153 370.175 290.979 370.175H294.615C295.442 370.175 296.103 370.836 296.103 371.662V373.728C296.103 374.555 295.442 375.216 294.615 375.216Z" fill="#FAC46C"/>
<path d="M304.656 508.722L309.119 525.705L328.168 519.672C332.547 518.267 333.085 512.276 329.035 510.127C327.465 509.3 325.73 508.557 323.912 508.061C315.937 505.706 316.97 504.383 316.97 504.383C316.97 504.383 311.846 504.135 310.896 510.086C308.168 510.995 304.656 508.722 304.656 508.722Z" fill="#FAC46C"/>
<path d="M309.119 525.663L333.911 518.019" stroke="#5B27AD" stroke-width="3.71885" stroke-miterlimit="10" stroke-linecap="round"/>
<path d="M317.341 507.73L306.722 511.49C305.441 511.945 303.995 511.284 303.54 509.962L301.805 505.044C301.35 503.764 302.012 502.317 303.334 501.863L313.953 498.103C315.234 497.648 316.68 498.309 317.135 499.631L318.87 504.549C319.325 505.871 318.622 507.276 317.341 507.73Z" fill="#748CE2"/>
</svg>
