<svg width="507" height="700" viewBox="0 0 507 700" fill="none" xmlns="http://www.w3.org/2000/svg">
<circle opacity="0.1" cx="220.5" cy="387.5" r="192.5" fill="white"/>
<circle opacity="0.2" cx="452.5" cy="472.5" r="42.5" fill="white"/>
<path d="M153.986 468.683H351.776C381.994 441.583 401.001 402.196 401.001 358.428C401.001 276.609 334.7 210.308 252.881 210.308C171.062 210.308 104.761 276.609 104.761 358.428C104.761 402.233 123.768 441.583 153.986 468.683Z" fill="#964CFF" stroke="#964CFF" stroke-width="5.1972" stroke-miterlimit="10" stroke-linecap="round"/>
<path d="M412.918 247.059V273.677" stroke="#D66B49" stroke-width="1.11369" stroke-miterlimit="10"/>
<path d="M423.758 304.006H402.078V286.15C402.078 280.173 406.941 275.31 412.918 275.31C418.895 275.31 423.758 280.173 423.758 286.15V304.006Z" fill="#C15F38"/>
<path d="M412.918 314.846C418.904 314.846 423.758 309.992 423.758 304.006C423.758 298.019 418.904 293.166 412.918 293.166C406.931 293.166 402.078 298.019 402.078 304.006C402.078 309.992 406.931 314.846 412.918 314.846Z" fill="#D66B49"/>
<path d="M413.809 275.792C413.4 276.498 412.435 276.498 412.027 275.792L411.099 274.159L410.171 272.526C409.762 271.82 410.282 270.966 411.062 270.966H412.918H414.774C415.553 270.966 416.073 271.82 415.665 272.526L414.737 274.159L413.809 275.792Z" fill="#C15F38"/>
<path d="M408.611 301.964C409.575 301.964 410.356 301.183 410.356 300.219C410.356 299.256 409.575 298.474 408.611 298.474C407.648 298.474 406.867 299.256 406.867 300.219C406.867 301.183 407.648 301.964 408.611 301.964Z" fill="#C15F38"/>
<path d="M418.746 304.637C419.279 304.637 419.711 304.205 419.711 303.672C419.711 303.139 419.279 302.707 418.746 302.707C418.213 302.707 417.781 303.139 417.781 303.672C417.781 304.205 418.213 304.637 418.746 304.637Z" fill="#C15F38"/>
<path d="M409.911 308.349C410.608 308.349 411.173 307.784 411.173 307.087C411.173 306.39 410.608 305.825 409.911 305.825C409.214 305.825 408.649 306.39 408.649 307.087C408.649 307.784 409.214 308.349 409.911 308.349Z" fill="#C15F38"/>
<path d="M417.113 309.76C417.502 309.76 417.818 309.444 417.818 309.055C417.818 308.665 417.502 308.349 417.113 308.349C416.723 308.349 416.407 308.665 416.407 309.055C416.407 309.444 416.723 309.76 417.113 309.76Z" fill="#C15F38"/>
<path d="M377.168 237.11V263.728" stroke="#D66B49" stroke-width="1.11369" stroke-miterlimit="10"/>
<path d="M388.008 294.057H366.328V276.238C366.328 270.261 371.192 265.398 377.168 265.398C383.145 265.398 388.008 270.261 388.008 276.238V294.057Z" fill="#C15F38"/>
<path d="M377.168 304.897C383.155 304.897 388.008 300.044 388.008 294.057C388.008 288.07 383.155 283.217 377.168 283.217C371.182 283.217 366.328 288.07 366.328 294.057C366.328 300.044 371.182 304.897 377.168 304.897Z" fill="#D66B49"/>
<path d="M378.059 265.881C377.651 266.586 376.686 266.586 376.277 265.881L375.349 264.247L374.421 262.614C374.013 261.909 374.533 261.055 375.312 261.055H377.168H379.024C379.804 261.055 380.324 261.909 379.915 262.614L378.987 264.247L378.059 265.881Z" fill="#C15F38"/>
<path d="M372.862 292.015C373.826 292.015 374.607 291.234 374.607 290.27C374.607 289.307 373.826 288.526 372.862 288.526C371.898 288.526 371.117 289.307 371.117 290.27C371.117 291.234 371.898 292.015 372.862 292.015Z" fill="#C15F38"/>
<path d="M382.997 294.725C383.53 294.725 383.962 294.293 383.962 293.76C383.962 293.227 383.53 292.795 382.997 292.795C382.464 292.795 382.031 293.227 382.031 293.76C382.031 294.293 382.464 294.725 382.997 294.725Z" fill="#C15F38"/>
<path d="M374.124 298.4C374.821 298.4 375.386 297.835 375.386 297.138C375.386 296.441 374.821 295.876 374.124 295.876C373.427 295.876 372.862 296.441 372.862 297.138C372.862 297.835 373.427 298.4 374.124 298.4Z" fill="#C15F38"/>
<path d="M381.326 299.811C381.716 299.811 382.031 299.495 382.031 299.106C382.031 298.716 381.716 298.4 381.326 298.4C380.937 298.4 380.621 298.716 380.621 299.106C380.621 299.495 380.937 299.811 381.326 299.811Z" fill="#C15F38"/>
<path d="M214.904 229.092V377.509" stroke="#5B27AD" stroke-width="5.1972" stroke-miterlimit="10" stroke-linecap="round"/>
<path d="M434.635 229.092V377.509" stroke="#964CFF" stroke-width="5.1972" stroke-miterlimit="10" stroke-linecap="round"/>
<path d="M214.904 258.122C206.069 258.122 198.904 250.957 198.904 242.122V200.025H230.904V242.085C230.867 250.957 223.74 258.122 214.904 258.122Z" fill="white"/>
<path d="M246.273 258.122C237.438 258.122 230.273 250.957 230.273 242.122V200.025H262.273V242.085C262.273 250.957 255.108 258.122 246.273 258.122Z" fill="#FF75A7"/>
<path d="M277.679 258.122C268.844 258.122 261.679 250.957 261.679 242.122V200.025H293.679V242.085C293.679 250.957 286.514 258.122 277.679 258.122Z" fill="white"/>
<path d="M309.085 258.122C300.25 258.122 293.085 250.957 293.085 242.122V200.025H325.085V242.085C325.048 250.957 317.92 258.122 309.085 258.122Z" fill="#FF75A7"/>
<path d="M340.454 258.122C331.619 258.122 324.454 250.957 324.454 242.122V200.025H356.454V242.085C356.454 250.957 349.289 258.122 340.454 258.122Z" fill="white"/>
<path d="M371.86 258.122C363.025 258.122 355.86 250.957 355.86 242.122V200.025H387.86V242.085C387.86 250.957 380.695 258.122 371.86 258.122Z" fill="#FF75A7"/>
<path d="M403.229 258.122C394.393 258.122 387.229 250.957 387.229 242.122V200.025H419.229V242.085C419.229 250.957 412.064 258.122 403.229 258.122Z" fill="white"/>
<path d="M434.635 258.122C425.799 258.122 418.635 250.957 418.635 242.122V200.025H450.635V242.085C450.635 250.957 443.47 258.122 434.635 258.122Z" fill="#FF75A7"/>
<path d="M437.233 372.163H212.306V469.314H437.233V372.163Z" fill="#C6A1FC"/>
<path d="M386.932 371.532C381.809 372.423 376.723 375.245 371.897 377.324C369.038 378.808 366.291 380.553 363.73 382.595C361.762 384.414 359.906 386.419 358.236 388.609C355.934 392.21 354.041 396.071 352.445 400.08C350.032 406.725 348.213 413.63 345.725 420.275C342.904 427.848 339.6 435.272 334.032 440.841C331.247 443.625 328.166 446.112 324.751 447.783C319.665 450.27 314.988 451.532 309.493 452.312C292.862 454.65 276.194 449.602 259.563 451.495C256.593 452.052 253.698 452.869 250.913 454.019C248.649 455.207 246.459 456.655 244.417 458.289C241.744 460.776 239.331 463.56 237.141 466.567C236.547 467.458 235.99 468.349 235.433 469.277H437.456V372.126C428.658 371.904 395.767 370.382 386.932 371.532Z" fill="#964CFF"/>
<path d="M328.5 368.34C325.568 365.741 325.308 361.212 327.943 358.316L358.57 324.052C361.168 321.119 365.697 320.86 368.593 323.495C371.526 326.094 371.786 330.623 369.15 333.518L338.523 367.783C335.925 370.716 331.433 370.938 328.5 368.34Z" fill="#FAC46C"/>
<path d="M362.208 335.3L357.605 333.259C356.417 332.739 356.083 331.18 356.936 330.214C357.493 329.583 358.384 329.398 359.164 329.732L363.767 331.774C364.955 332.293 365.289 333.853 364.435 334.818C363.878 335.449 362.987 335.634 362.208 335.3Z" fill="#DBA75D"/>
<path d="M354.449 344.024L349.846 341.982C348.658 341.463 348.324 339.904 349.178 338.938C349.735 338.307 350.625 338.122 351.405 338.456L356.008 340.498C357.196 341.017 357.53 342.576 356.677 343.542C356.12 344.173 355.192 344.358 354.449 344.024Z" fill="#DBA75D"/>
<path d="M346.245 353.194L341.642 351.152C340.454 350.632 340.12 349.073 340.974 348.108C341.53 347.477 342.421 347.291 343.201 347.625L347.804 349.667C348.992 350.187 349.326 351.746 348.472 352.711C347.878 353.342 346.987 353.528 346.245 353.194Z" fill="#DBA75D"/>
<path d="M338.301 362.066L333.697 360.024C332.51 359.504 332.175 357.945 333.029 356.98C333.586 356.349 334.477 356.163 335.257 356.497L339.86 358.539C341.048 359.059 341.382 360.618 340.528 361.583C339.971 362.214 339.043 362.4 338.301 362.066Z" fill="#DBA75D"/>
<path d="M356.862 369.565C354.226 366.669 354.449 362.177 357.345 359.542L391.424 328.693C394.319 326.057 398.811 326.28 401.447 329.175C404.082 332.071 403.86 336.563 400.964 339.198L366.885 370.047C363.99 372.683 359.498 372.46 356.862 369.565Z" fill="#FAC46C"/>
<path d="M393.837 340.238L389.493 337.713C388.342 337.045 388.194 335.486 389.159 334.595C389.79 334.038 390.681 333.927 391.424 334.335L395.767 336.859C396.918 337.528 397.066 339.087 396.101 339.978C395.47 340.572 394.579 340.646 393.837 340.238Z" fill="#DBA75D"/>
<path d="M385.187 348.07L380.844 345.546C379.693 344.878 379.544 343.319 380.509 342.428C381.141 341.871 382.031 341.76 382.774 342.168L387.117 344.692C388.268 345.361 388.417 346.92 387.451 347.811C386.82 348.405 385.892 348.516 385.187 348.07Z" fill="#DBA75D"/>
<path d="M376.055 356.349L371.711 353.825C370.56 353.156 370.412 351.597 371.377 350.706C372.008 350.149 372.899 350.038 373.642 350.446L377.985 352.971C379.136 353.639 379.284 355.198 378.319 356.089C377.688 356.646 376.797 356.757 376.055 356.349Z" fill="#DBA75D"/>
<path d="M367.219 364.33L362.876 361.806C361.725 361.138 361.577 359.579 362.542 358.688C363.173 358.131 364.064 358.019 364.806 358.428L369.15 360.952C370.301 361.62 370.449 363.18 369.484 364.07C368.853 364.664 367.962 364.776 367.219 364.33Z" fill="#DBA75D"/>
<path d="M346.876 372.015C343.609 369.825 342.755 365.407 344.946 362.14L370.561 323.978C372.751 320.711 377.168 319.857 380.435 322.048C383.702 324.238 384.556 328.655 382.366 331.922L356.751 370.085C354.561 373.314 350.143 374.205 346.876 372.015Z" fill="#FAC46C"/>
<path d="M375.683 334.632L370.857 333.259C369.595 332.887 369.038 331.402 369.781 330.326C370.264 329.62 371.117 329.324 371.934 329.546L376.76 330.92C378.022 331.291 378.579 332.776 377.837 333.852C377.354 334.558 376.5 334.855 375.683 334.632Z" fill="#DBA75D"/>
<path d="M369.187 344.321L364.361 342.948C363.099 342.576 362.542 341.092 363.284 340.015C363.767 339.31 364.621 339.013 365.438 339.235L370.264 340.609C371.526 340.98 372.083 342.465 371.34 343.542C370.857 344.247 370.004 344.581 369.187 344.321Z" fill="#DBA75D"/>
<path d="M362.319 354.567L357.493 353.194C356.231 352.822 355.674 351.337 356.417 350.261C356.899 349.556 357.753 349.259 358.57 349.481L363.396 350.855C364.658 351.226 365.215 352.711 364.472 353.788C363.99 354.493 363.136 354.79 362.319 354.567Z" fill="#DBA75D"/>
<path d="M355.674 364.442L350.848 363.068C349.586 362.697 349.029 361.212 349.772 360.136C350.254 359.43 351.108 359.133 351.925 359.356L356.751 360.729C358.013 361.101 358.57 362.586 357.827 363.662C357.345 364.368 356.491 364.702 355.674 364.442Z" fill="#DBA75D"/>
<path d="M383.962 378.623H327.609L316.658 351.969H392.649L383.962 378.623Z" fill="#FF886C"/>
<path d="M301.475 349.073C306.078 354.196 304.185 363.365 304.185 363.365C304.185 363.365 294.867 364.219 290.264 359.059C285.661 353.936 287.554 344.767 287.554 344.767C287.554 344.767 296.872 343.95 301.475 349.073Z" fill="#6ACFA7"/>
<path d="M324.38 353.528C325.196 358.873 320.036 364.07 320.036 364.07C320.036 364.07 313.577 360.618 312.76 355.31C311.944 349.964 317.104 344.767 317.104 344.767C317.104 344.767 323.6 348.182 324.38 353.528Z" fill="#6ACFA7"/>
<path d="M298.319 335.337C300.25 338.716 298.134 343.542 298.134 343.542C298.134 343.542 292.899 342.911 290.969 339.532C289.039 336.154 291.155 331.328 291.155 331.328C291.155 331.328 296.389 331.959 298.319 335.337Z" fill="#6ACFA7"/>
<path d="M314.765 349.778C317.66 356.052 313.169 364.256 313.169 364.256C313.169 364.256 303.999 362.326 301.141 356.052C298.245 349.778 302.737 341.574 302.737 341.574C302.737 341.574 311.869 343.541 314.765 349.778Z" fill="#97F2CB"/>
<path d="M328.686 359.393H287.183V378.623H328.686V359.393Z" fill="white"/>
<path d="M197.122 309.834L208.742 316.813C210.153 317.667 210.635 319.523 209.781 320.934C209.039 322.196 207.517 322.679 206.18 322.233L193.41 317.704C191.146 316.887 189.921 314.4 190.737 312.136C191.554 309.871 194.041 308.646 196.306 309.463C196.603 309.537 196.863 309.686 197.122 309.834Z" fill="#6ACFA7"/>
<path d="M203.619 305.045L212.231 315.477C213.085 316.516 212.937 318.075 211.897 318.929C210.969 319.709 209.596 319.672 208.705 318.892L198.57 309.908C197.122 308.609 196.974 306.419 198.273 304.971C199.573 303.523 201.763 303.375 203.211 304.674C203.396 304.785 203.508 304.934 203.619 305.045Z" fill="#97F2CB"/>
<path d="M198.904 318.15L205.289 320.526C206.589 321.008 207.22 322.419 206.737 323.718C206.366 324.758 205.327 325.389 204.287 325.314L197.457 324.98C195.489 324.869 194.004 323.236 194.115 321.268C194.227 319.301 195.86 317.816 197.828 317.927C198.199 317.964 198.57 318.038 198.904 318.15Z" fill="#97F2CB"/>
<path d="M206.44 318.966C203.136 324.535 204.955 331.737 210.524 335.078C219.173 340.238 255.999 348.479 255.999 348.479C255.999 348.479 231.201 320.043 222.552 314.883C216.983 311.579 209.781 313.398 206.44 318.966Z" fill="#FF886C"/>
<path d="M231.127 303.858L239.517 314.697C240.556 316.034 240.296 317.927 238.997 318.966C237.846 319.857 236.213 319.783 235.136 318.855L224.742 309.909C222.886 308.312 222.663 305.528 224.259 303.672C225.856 301.816 228.64 301.593 230.496 303.189C230.719 303.412 230.941 303.635 231.127 303.858Z" fill="#6ACFA7"/>
<path d="M239.034 301.742L243.34 314.735C243.786 316.034 243.081 317.445 241.781 317.89C240.593 318.298 239.331 317.742 238.774 316.665L232.501 304.489C231.61 302.744 232.278 300.591 234.023 299.7C235.767 298.809 237.92 299.477 238.811 301.222C238.886 301.408 238.96 301.593 239.034 301.742Z" fill="#97F2CB"/>
<path d="M230.459 314.623L235.619 319.226C236.658 320.154 236.733 321.751 235.804 322.753C235.062 323.57 233.874 323.792 232.909 323.384L226.598 320.563C224.779 319.746 223.999 317.63 224.779 315.848C225.596 314.029 227.712 313.25 229.494 314.029C229.865 314.178 230.199 314.4 230.459 314.623Z" fill="#97F2CB"/>
<path d="M236.584 315.885C231.424 319.932 230.496 327.393 234.542 332.554C240.816 340.572 272.482 361.843 272.482 361.843C272.482 361.843 259.526 325.946 253.252 317.927C249.206 312.767 241.744 311.876 236.584 315.885Z" fill="#FF886C"/>
<path d="M287.442 304.785L280.463 316.405C279.609 317.815 277.753 318.298 276.343 317.444C275.08 316.702 274.598 315.18 275.043 313.843L279.572 301.073C280.389 298.808 282.876 297.621 285.178 298.4C287.442 299.217 288.63 301.704 287.851 304.006C287.702 304.266 287.591 304.525 287.442 304.785Z" fill="#6ACFA7"/>
<path d="M292.194 311.319L281.763 319.931C280.723 320.785 279.164 320.637 278.31 319.597C277.531 318.632 277.568 317.296 278.384 316.405L287.368 306.307C288.667 304.86 290.858 304.748 292.305 306.01C293.753 307.31 293.865 309.5 292.602 310.948C292.491 311.059 292.343 311.208 292.194 311.319Z" fill="#97F2CB"/>
<path d="M279.09 306.567L276.677 312.952C276.194 314.252 274.746 314.883 273.484 314.4C272.445 313.992 271.814 312.99 271.888 311.95L272.259 305.12C272.371 303.152 274.041 301.667 275.971 301.778C277.902 301.89 279.424 303.56 279.312 305.491C279.312 305.862 279.238 306.233 279.09 306.567Z" fill="#97F2CB"/>
<path d="M278.273 314.103C272.705 310.762 265.503 312.581 262.162 318.15C257.002 326.799 248.649 363.588 248.649 363.588C248.649 363.588 277.122 338.864 282.319 330.214C285.66 324.646 283.841 317.444 278.273 314.103Z" fill="#FF886C"/>
<path d="M286.886 337.713H204.027V349.593H286.886V337.713Z" fill="#FAC46C"/>
<path d="M286.886 359.802H204.027V370.567H286.886V359.802Z" fill="#FAC46C"/>
<path d="M286.886 348.776H204.027V360.655H286.886V348.776Z" fill="#DBA75D"/>
<path d="M286.886 367.857H204.027V378.623H286.886V367.857Z" fill="#DBA75D"/>
<path d="M432.259 356.163C431.516 352.043 428.658 349.221 427.767 342.057H416.741H415.071H404.045C403.154 349.221 400.259 352.043 399.553 356.163C397.697 366.632 398.031 378.623 398.031 378.623H415.108H416.778H433.855C433.781 378.623 434.115 366.632 432.259 356.163Z" fill="#97F2CB"/>
<path d="M429.586 336.525H402.078V343.579H429.586V336.525Z" fill="white"/>
<path d="M421.122 372.572C419.526 372.163 418.523 370.493 418.932 368.896L422.718 354.196C423.126 352.599 424.797 351.597 426.393 352.005C427.989 352.414 428.992 354.084 428.583 355.681L424.797 370.381C424.389 372.015 422.718 372.98 421.122 372.572Z" fill="#6ACFA7"/>
<path d="M411.952 374.725C410.133 375.244 408.203 374.168 407.683 372.349L402.932 355.606C402.412 353.787 403.488 351.857 405.307 351.337C407.126 350.818 409.057 351.894 409.577 353.713L414.328 370.456C414.848 372.312 413.771 374.205 411.952 374.725Z" fill="#6ACFA7"/>
<path d="M414.403 356.609C412.918 355.866 412.324 354.047 413.066 352.599L415.739 346.734C416.481 345.249 418.3 344.655 419.748 345.398C421.233 346.14 421.827 347.959 421.085 349.407L418.412 355.272C417.706 356.757 415.887 357.351 414.403 356.609Z" fill="#6ACFA7"/>
<path d="M61.9952 471.987H450.857" stroke="#5B27AD" stroke-width="5.1972" stroke-miterlimit="10" stroke-linecap="round"/>
<path d="M215.276 447.411H226.487L232.315 389.463L214.199 317.073C213.457 314.103 210.412 312.284 207.443 313.027C204.473 313.769 202.654 316.813 203.396 319.783L221.03 390.279L215.276 447.411Z" fill="#7792F7"/>
<path d="M254.737 329.806C254.106 329.806 253.512 329.695 252.881 329.472C232.278 322.196 217.28 306.939 209.484 285.333C203.693 269.296 203.953 255.449 203.953 254.855C204.027 251.811 206.515 249.398 209.521 249.398C209.559 249.398 209.596 249.398 209.633 249.398C212.714 249.472 215.127 251.997 215.09 255.078C215.09 255.189 214.904 267.737 220.064 281.881C226.784 300.294 239.071 312.767 256.556 318.966C259.452 320.006 260.974 323.161 259.934 326.057C259.155 328.358 257.039 329.806 254.737 329.806Z" fill="#FC97C1"/>
<path d="M194.078 233.212V245.537C194.078 245.537 202.394 254.744 203.693 255.004C204.992 255.263 212.083 255.004 212.083 255.004L208.408 244.535L205.549 233.212H194.078Z" fill="#F985BA"/>
<path d="M189.067 455.727L187.99 471.467L205.958 471.838C210.078 471.912 212.306 466.975 209.447 463.968C208.334 462.817 207.108 461.704 205.698 460.738C199.61 456.432 200.872 455.616 200.872 455.616C200.872 455.616 196.566 451.421 194.041 456.21C191.368 456.135 189.067 455.727 189.067 455.727Z" fill="#FAC46C"/>
<path d="M215.313 455.727L214.236 471.467L232.204 471.838C236.324 471.912 238.552 466.975 235.693 463.968C234.579 462.817 233.354 461.704 231.944 460.738C225.856 456.432 227.118 455.616 227.118 455.616C227.118 455.616 222.811 451.421 220.287 456.21C217.614 456.135 215.313 455.727 215.313 455.727Z" fill="#FAC46C"/>
<path d="M199.424 239.301C212.464 239.301 223.034 228.73 223.034 215.69C223.034 202.651 212.464 192.08 199.424 192.08C186.385 192.08 175.814 202.651 175.814 215.69C175.814 228.73 186.385 239.301 199.424 239.301Z" fill="#FC97C1"/>
<path d="M209.559 200.953C209.559 200.953 209.633 223.449 220.324 226.716C227.897 217.547 221.067 195.57 212.9 191.189C199.907 184.247 180.417 187.885 174.812 192.934C169.206 197.946 178.561 204.702 178.561 204.702C178.561 204.702 189.587 192.377 209.559 200.953Z" fill="#3F2070"/>
<path d="M212.974 218.957C216.521 218.957 219.396 216.082 219.396 212.535C219.396 208.988 216.521 206.113 212.974 206.113C209.427 206.113 206.552 208.988 206.552 212.535C206.552 216.082 209.427 218.957 212.974 218.957Z" fill="#FC97C1"/>
<path d="M197.605 212.461C198.487 212.461 199.201 211.746 199.201 210.864C199.201 209.983 198.487 209.268 197.605 209.268C196.723 209.268 196.009 209.983 196.009 210.864C196.009 211.746 196.723 212.461 197.605 212.461Z" fill="#3F2070"/>
<path d="M182.088 215.096C182.969 215.096 183.684 214.382 183.684 213.5C183.684 212.619 182.969 211.904 182.088 211.904C181.206 211.904 180.491 212.619 180.491 213.5C180.491 214.382 181.206 215.096 182.088 215.096Z" fill="#3F2070"/>
<path d="M196.751 225.677C196.194 228.312 194.041 230.206 191.22 230.651C188.399 231.134 185.763 229.463 185.095 227.681C186.505 227.087 188.399 226.753 189.995 226.456C193.559 225.788 196.751 225.677 196.751 225.677Z" fill="white"/>
<path d="M198.793 198.057C198.793 198.057 186.468 208.823 178.524 204.702C174.923 202.846 164.937 200.025 164.937 200.025C164.937 200.025 174.886 187.403 193.336 187.403C208.037 187.403 198.793 198.057 198.793 198.057Z" fill="#3F2070"/>
<path d="M218.654 276.98C218.542 273.936 218.357 270.892 218.134 267.811C218.023 266.289 217.911 264.767 217.763 263.208L217.54 260.869L217.429 259.681C217.392 259.273 217.354 258.901 217.28 258.382L217.095 257.008C216.983 256.154 216.798 255.301 216.501 254.447C215.164 250.029 212.157 246.577 208.408 244.535L207.48 253.704L194.227 243.607C185.986 246.762 181.457 255.82 184.092 264.396C184.129 264.581 184.241 264.915 184.315 265.212L184.538 266.178L184.983 268.108C185.28 269.407 185.54 270.744 185.8 272.08C186.32 274.753 186.802 277.426 187.248 280.099C188.102 285.481 188.844 290.864 189.29 296.173C189.512 298.846 189.735 301.518 189.846 304.117C189.958 306.753 190.032 309.351 189.958 311.95C189.883 317.073 189.438 322.047 188.547 326.502L188.436 327.022C187.136 333.221 190.626 339.532 196.751 341.611C203.396 343.876 210.598 340.349 212.9 333.704C215.164 327.059 216.463 320.563 217.354 314.215C217.8 311.022 218.097 307.904 218.357 304.748C218.617 301.63 218.765 298.512 218.839 295.43C218.951 289.231 218.876 283.106 218.654 276.98Z" fill="#FAC46C"/>
<path d="M200.872 446.409L198.904 328.804C198.867 325.76 196.38 323.347 193.336 323.347C193.299 323.347 193.262 323.347 193.225 323.347C190.143 323.384 187.693 325.945 187.767 329.026L189.735 446.335C193.447 446.335 197.16 446.372 200.872 446.409Z" fill="#94A6FF"/>
<path d="M189.327 317.593C189.104 320.86 188.696 323.978 188.102 326.911L187.99 327.43C186.654 333.927 190.292 340.535 196.714 342.725C203.693 345.101 211.266 341.389 213.642 334.409C215.61 328.655 216.872 323.05 217.763 317.556H189.327V317.593Z" fill="#94A6FF"/>
<path d="M195.6 269.296H205.512V277.686L200.538 283.254L195.6 277.686V269.296Z" fill="#DBA75D"/>
<path d="M172.287 333.221L166.31 344.395L160.334 333.221C160.334 333.221 130.041 398.855 142.589 410.326C151.907 418.827 177.67 420.794 190.143 410.326C203.211 399.411 172.287 333.221 172.287 333.221Z" fill="white"/>
<path d="M166.162 345.212C165.976 345.212 165.828 345.212 165.642 345.175C162.598 344.878 160.334 342.168 160.631 339.124C165.048 292.164 184.018 254.076 184.798 252.479C186.171 249.732 189.512 248.618 192.259 250.029C195.006 251.403 196.12 254.744 194.747 257.491C194.561 257.862 175.925 295.356 171.693 340.163C171.433 343.059 169.02 345.212 166.162 345.212Z" fill="#FC97C1"/>
<path d="M192.334 249.881C189.438 248.433 185.874 249.584 184.426 252.479C184.167 252.962 178.821 263.653 173.067 280.618C176.705 282.177 180.232 284.034 183.721 285.89C189.438 268.85 194.895 257.899 194.969 257.751C196.417 254.892 195.266 251.328 192.334 249.881Z" fill="#FAC46C"/>
<path d="M177.596 387.978C190.849 385.416 180.788 350.595 180.788 350.595C177.15 340.126 174.477 333.11 174.477 333.11L167.276 346.586L160.074 333.11C160.037 333.11 164.343 390.539 177.596 387.978Z" fill="#C9C9C9"/>
<path d="M195.6 317.184C191.703 314.511 186.357 315.477 183.684 319.375L160.259 353.379C160.891 354.753 161.447 356.126 162.004 357.5C162.821 357.685 163.6 358.057 164.194 358.688C164.083 357.351 163.972 356.052 163.935 354.716C163.935 353.268 166.162 352.934 166.459 354.381C167.573 359.504 167.87 364.664 168.055 369.862C168.167 370.53 168.241 371.235 168.315 371.903L197.791 329.138C200.464 325.203 199.498 319.857 195.6 317.184Z" fill="#FAC46C"/>
<path d="M159.331 357.723C159.072 357.092 158.812 356.46 158.552 355.829L157.884 356.757C158.143 357.203 158.366 357.685 158.626 358.131C158.849 357.982 159.072 357.834 159.331 357.723Z" fill="#FAC46C"/>
<path d="M189.735 332.293L183.944 330.549C182.422 330.103 181.791 328.284 182.682 326.985C183.238 326.168 184.315 325.797 185.28 326.057L191.071 327.802C192.593 328.247 193.225 330.066 192.334 331.365C191.74 332.219 190.7 332.59 189.735 332.293Z" fill="#DBA75D"/>
<path d="M181.716 343.876L175.925 342.131C174.403 341.685 173.772 339.866 174.663 338.567C175.22 337.75 176.297 337.379 177.262 337.639L183.053 339.384C184.575 339.829 185.206 341.648 184.315 342.948C183.721 343.801 182.682 344.173 181.716 343.876Z" fill="#DBA75D"/>
<path d="M173.29 356.089L167.498 354.344C165.976 353.899 165.345 352.08 166.236 350.781C166.793 349.964 167.87 349.593 168.835 349.852L174.626 351.597C176.148 352.043 176.779 353.862 175.888 355.161C175.331 356.015 174.255 356.386 173.29 356.089Z" fill="#DBA75D"/>
<path d="M167.907 366.706C168.278 365.964 168.204 365.11 167.795 364.442C167.833 365.221 167.87 365.964 167.907 366.706Z" fill="#DBA75D"/>
<path d="M174.477 377.955C171.322 375.022 168.241 372.275 165.16 369.713C165.382 370.604 165.642 371.495 165.865 372.386C168.686 374.094 171.545 375.95 174.477 377.955Z" fill="#C9C9C9"/>
<path d="M161.707 351.932C152.761 343.059 144.297 336.488 136.389 332.331L133.865 337.082C143.925 342.391 154.097 351.523 163.007 361.027C163.118 361.101 163.192 361.175 163.303 361.249C162.672 358.094 162.153 354.939 161.707 351.932Z" fill="#6ACFA7"/>
<path d="M178.19 374.057C180.083 375.802 181.865 377.509 183.573 379.18C183.684 378.586 183.758 377.955 183.795 377.324C181.605 374.465 179.155 371.384 176.482 368.154C171.433 362.103 166.533 356.72 161.744 351.969C162.19 354.976 162.71 358.131 163.341 361.286C168.092 365.036 173.067 369.305 178.19 374.057Z" fill="#6ACFA7"/>
<path d="M137.8 359.579L136.427 364.776C145.67 367.226 156.696 372.646 168.835 380.627C167.758 378.252 166.756 375.43 165.902 372.386C155.582 366.112 146.153 361.806 137.8 359.579Z" fill="#6ACFA7"/>
<path d="M181.605 384.822C179.415 382.632 177.039 380.331 174.477 377.955C171.545 375.95 168.686 374.094 165.902 372.386C166.793 375.43 167.758 378.252 168.835 380.627C172.027 382.743 175.294 385.008 178.635 387.458C179.86 386.901 180.863 385.973 181.605 384.822Z" fill="#6ACFA7"/>
<path d="M163.007 361.027C152.427 352.748 142.663 346.92 133.902 343.616L132.009 348.628C141.624 352.228 152.946 359.43 165.197 369.713C164.491 367.003 163.897 364.182 163.341 361.361C163.229 361.249 163.118 361.138 163.007 361.027Z" fill="#97F2CB"/>
<path d="M174.477 377.955C176.631 379.44 178.821 380.962 181.048 382.595C176.408 376.47 170.283 368.822 163.341 361.361C163.897 364.182 164.529 367.041 165.197 369.713C168.241 372.275 171.322 375.022 174.477 377.955Z" fill="#97F2CB"/>
<path d="M163.304 361.249C163.192 361.175 163.118 361.101 163.007 361.027C163.118 361.138 163.229 361.249 163.304 361.361C163.304 361.324 163.304 361.286 163.304 361.249Z" fill="#97F2CB"/>
<path d="M183.535 379.18C181.828 377.509 180.046 375.802 178.153 374.057C173.03 369.305 168.055 365.036 163.266 361.249C163.266 361.287 163.266 361.324 163.303 361.361C170.245 368.822 176.408 376.47 181.011 382.595C181.419 382.892 181.865 383.226 182.273 383.523C182.904 382.261 183.276 380.776 183.535 379.18Z" fill="#97F2CB"/>
<path d="M181.048 382.595C178.821 380.962 176.631 379.44 174.477 377.955C177.039 380.33 179.415 382.632 181.605 384.822C181.791 384.562 181.939 384.303 182.088 384.006C181.754 383.523 181.382 383.078 181.048 382.595Z" fill="#97F2CB"/>
<path d="M182.31 383.523C181.902 383.226 181.457 382.892 181.048 382.595C181.419 383.078 181.754 383.523 182.088 384.006C182.162 383.82 182.236 383.672 182.31 383.523Z" fill="#97F2CB"/>
<path d="M200.352 457.657H189.883C189.104 457.657 188.473 457.026 188.473 456.247V443.848C188.473 443.068 189.104 442.437 189.883 442.437H200.352C201.132 442.437 201.763 443.068 201.763 443.848V456.247C201.8 457.026 201.132 457.657 200.352 457.657Z" fill="#9AAFF4"/>
<path d="M226.115 457.657H215.647C214.867 457.657 214.236 457.026 214.236 456.247V443.848C214.236 443.068 214.867 442.437 215.647 442.437H226.115C226.895 442.437 227.526 443.068 227.526 443.848V456.247C227.563 457.026 226.932 457.657 226.115 457.657Z" fill="#9AAFF4"/>
<path d="M252.807 324.646C252.807 324.646 270.663 429.295 385.929 438.762" stroke="white" stroke-width="1.11369" stroke-miterlimit="10" stroke-linecap="round" stroke-linejoin="round"/>
<path d="M395.173 454.762L390.755 470.353" stroke="white" stroke-width="4.82597" stroke-miterlimit="10" stroke-linecap="round"/>
<path d="M363.618 442.103C363.618 442.103 367.665 451.421 379.73 449.527" stroke="#3F2070" stroke-width="4.82597" stroke-miterlimit="10" stroke-linecap="round"/>
<path d="M400.036 434.122C405.27 442.103 396.25 458.734 396.25 458.734C396.25 458.734 362.505 470.019 362.505 451.235C362.505 432.451 383.071 446.186 383.071 437.24C383.071 432.488 394.802 426.14 400.036 434.122Z" fill="white"/>
<path d="M367.182 455.467L362.505 470.353" stroke="white" stroke-width="4.82597" stroke-miterlimit="10" stroke-linecap="round"/>
<path d="M376.686 455.467L372.008 470.353" stroke="white" stroke-width="4.82597" stroke-miterlimit="10" stroke-linecap="round"/>
<path d="M390.755 454.168C399.448 454.168 406.495 447.121 406.495 438.428C406.495 429.735 399.448 422.688 390.755 422.688C382.062 422.688 375.015 429.735 375.015 438.428C375.015 447.121 382.062 454.168 390.755 454.168Z" fill="#FF75A7"/>
<path d="M403.006 432.488H380.621V437.277H403.006V432.488Z" fill="#FF75A7"/>
<path d="M392.24 448.005C403.147 448.005 411.99 439.163 411.99 428.256C411.99 417.349 403.147 408.507 392.24 408.507C381.333 408.507 372.491 417.349 372.491 428.256C372.491 439.163 381.333 448.005 392.24 448.005Z" fill="white"/>
<path d="M384.984 415.473C387.079 406.72 386.191 399.005 383.001 398.242C379.811 397.478 375.526 403.955 373.431 412.708C371.336 421.461 372.223 429.175 375.413 429.939C378.604 430.703 382.888 424.226 384.984 415.473Z" fill="white"/>
<path d="M405.633 413.104C407.351 405.926 406.627 399.6 404.015 398.975C401.403 398.35 397.893 403.662 396.174 410.84C394.456 418.018 395.181 424.343 397.793 424.969C400.404 425.594 403.915 420.282 405.633 413.104Z" fill="white"/>
<path d="M406.495 424.952C407.705 424.952 408.686 423.972 408.686 422.762C408.686 421.552 407.705 420.572 406.495 420.572C405.286 420.572 404.305 421.552 404.305 422.762C404.305 423.972 405.286 424.952 406.495 424.952Z" fill="#3F2070"/>
<path d="M371.971 427.885C371.971 431.894 373.122 435.606 375.127 438.762C386.895 432.043 398.18 421.054 398.143 408.284C396.324 407.764 394.393 407.467 392.426 407.467C390.161 407.467 388.825 407.579 386.783 408.247C387.34 401.973 385.373 397.407 382.848 396.813C379.544 396.033 375.089 402.715 372.936 411.773C371.674 417.045 371.971 426.994 371.971 427.885Z" fill="#3F2070"/>
<path d="M385.261 424.952C386.471 424.952 387.451 423.972 387.451 422.762C387.451 421.552 386.471 420.572 385.261 420.572C384.052 420.572 383.071 421.552 383.071 422.762C383.071 423.972 384.052 424.952 385.261 424.952Z" fill="white"/>
<path d="M388.899 435.94C389.345 437.388 390.681 438.465 392.24 438.465C393.799 438.465 395.173 437.425 395.581 435.94H388.899Z" fill="#3F2070"/>
<path d="M83.8606 359.133C79.9998 408.395 83.8606 457.657 83.8606 457.657" stroke="#D66B49" stroke-width="10.7656" stroke-miterlimit="10" stroke-linecap="round"/>
<path d="M108.993 376.729C108.139 377.62 125.958 456.284 125.958 456.284" stroke="#D66B49" stroke-width="10.7656" stroke-miterlimit="10" stroke-linecap="round"/>
<path d="M113.67 351.523C113.002 346.103 108.881 314.586 108.213 309.203H78.2179C77.9951 315.143 76.3989 347.18 76.139 353.119C75.6564 364.59 75.1738 376.061 74.5427 387.421C74.3942 390.019 74.2457 392.655 74.0972 395.254H118.793C118.459 392.21 118.162 389.203 117.828 386.159C116.492 374.539 115.081 363.031 113.67 351.523Z" fill="#FF886C"/>
<path d="M94.9974 281.918C94.9974 281.918 118.496 319.56 145.485 272.674" stroke="#D66B49" stroke-width="9.28072" stroke-miterlimit="10" stroke-linecap="round"/>
<path d="M120.13 291.013C119.239 291.236 118.311 291.347 117.383 291.347C113.93 291.421 110.775 290.122 108.102 288.377H93.8837C98.0415 293.352 106.431 301.185 117.531 300.999C118.459 300.999 119.387 300.925 120.315 300.776C120.204 298.623 120.13 296.47 120.13 294.317C120.13 293.24 120.13 292.127 120.13 291.013Z" fill="white"/>
<path d="M105.912 294.651C105.392 290.864 104.575 292.906 102.608 289.602C98.784 283.254 97.8188 276.201 91.2851 276.015C84.0462 275.792 78.4406 277.426 78.2179 284.665V284.702C78.1065 288.229 77.9952 291.718 77.8838 295.245C87.2388 294.242 96.5195 294.502 105.912 294.651Z" fill="#C15F38"/>
<path d="M86.0137 259.161L89.4661 279.727" stroke="#C15F38" stroke-width="9.28072" stroke-miterlimit="10" stroke-linecap="round"/>
<path d="M102.83 219.626C102.83 219.626 111.591 221.704 114.227 225.899C119.907 234.957 115.749 251.663 123.693 270.038C116.306 270.038 99.5264 270.038 99.5264 270.038V244.758L102.83 219.626Z" fill="#3F2070"/>
<path d="M82.5241 235.069C82.5241 235.069 78.3292 234.772 79.146 244.832C79.9627 254.818 81.262 260.015 83.1552 270.113C74.0972 270.113 58.9511 270.113 58.9511 270.113C58.9511 270.113 59.0996 233.881 65.1878 225.528C73.2805 214.465 107.359 215.356 113.076 227.236C118.83 239.152 111.925 231.876 111.925 231.876L82.5241 235.069Z" fill="#3F2070"/>
<path d="M114.19 256.451C116.814 256.451 118.942 254.324 118.942 251.7C118.942 249.075 116.814 246.948 114.19 246.948C111.566 246.948 109.438 249.075 109.438 251.7C109.438 254.324 111.566 256.451 114.19 256.451Z" fill="white"/>
<path d="M88.9093 229.463C89.9116 228.981 90.6169 228.015 91.5079 227.347C93.6981 225.64 92.7329 225.937 95.0346 224.526C102.051 220.22 110.255 223.041 113.039 227.273C120.018 237.742 113.262 256.08 108.287 259.459C99.8234 265.213 88.7237 255.078 87.5357 245.5C86.7933 239.635 85.8652 234.586 88.9093 229.463Z" fill="#3F2070"/>
<path d="M95.0717 266.772C106.471 266.772 115.712 257.531 115.712 246.131C115.712 234.732 106.471 225.491 95.0717 225.491C83.6724 225.491 74.4314 234.732 74.4314 246.131C74.4314 257.531 83.6724 266.772 95.0717 266.772Z" fill="#D66B49"/>
<path d="M107.619 241.268C108.622 241.12 109.921 240.934 111.331 240.414" stroke="#3F2070" stroke-width="0.742457" stroke-miterlimit="10" stroke-linecap="round"/>
<path d="M90.1343 240.526C91.0995 240.785 92.3617 241.082 93.8837 241.157" stroke="#3F2070" stroke-width="0.742457" stroke-miterlimit="10" stroke-linecap="round"/>
<path d="M99.8234 224.674C99.8234 224.674 97.0021 230.094 89.0206 235.069C81.8931 239.523 77.8838 240.043 81.5218 261.76C71.9813 261.76 69.8281 241.417 69.8281 241.417C69.8281 241.417 72.8722 232.136 74.3942 231.468C75.9163 230.8 79.2573 223.449 79.2573 223.449L86.2364 222.076L99.8234 224.674Z" fill="#3F2070"/>
<path d="M82.3785 251.238C83.7558 249.861 83.4267 247.299 81.6435 245.516C79.8604 243.733 77.2984 243.404 75.9211 244.781C74.5439 246.158 74.873 248.72 76.6561 250.503C78.4393 252.286 81.0013 252.615 82.3785 251.238Z" fill="#D66B49"/>
<path d="M79.146 258.456C81.7703 258.456 83.8977 256.329 83.8977 253.704C83.8977 251.08 81.7703 248.953 79.146 248.953C76.5217 248.953 74.3942 251.08 74.3942 253.704C74.3942 256.329 76.5217 258.456 79.146 258.456Z" fill="white"/>
<path d="M90.9139 255.672V255.709C91.3594 259.607 94.8861 262.391 98.784 261.946C101.234 261.649 103.239 260.164 104.278 258.122C99.8234 257.491 95.3687 256.6 90.9139 255.672Z" fill="white"/>
<path d="M84.3432 281.844C84.3432 281.844 34.0788 324.906 84.3432 348.85" stroke="#D66B49" stroke-width="9.28072" stroke-miterlimit="10" stroke-linecap="round"/>
<path d="M77.8838 295.69C77.7353 301.073 77.5497 306.493 77.3641 311.876H108.176C107.137 304.08 106.097 296.284 105.021 288.489H71.2759C70.3107 289.676 69.3084 290.902 68.3432 292.238C66.7469 294.391 65.2991 296.544 64.037 298.66C66.5613 300.702 69.0857 302.744 71.6471 304.748C73.5404 301.482 75.7307 298.4 77.8838 295.69Z" fill="white"/>
<path d="M154.246 252.405H153.726H143.034L145.336 286.447H153.726H154.246H162.635L164.937 252.405H154.246Z" fill="#FF75A7"/>
<path d="M164.343 278.465L165.308 264.322H142.663L143.591 277.908C150.496 278.02 157.438 278.28 164.343 278.465Z" fill="white"/>
<path d="M166.273 255.857H141.549L143.851 248.99H163.304L166.273 255.857Z" fill="white"/>
<path d="M141.846 275.83C143.257 272.674 145.485 269.444 145.485 269.444" stroke="#F9BD95" stroke-width="5.56843" stroke-miterlimit="10" stroke-linecap="round"/>
<path d="M119.684 454.391L120.946 470.984L138.097 471.356C142.329 471.43 144.594 466.381 141.661 463.3C140.547 462.112 139.248 460.961 137.837 459.959C131.601 455.578 133.494 457.62 132.9 454.725C132.306 452.015 128.482 450.418 125.884 455.319C123.174 455.319 119.684 454.391 119.684 454.391Z" fill="white"/>
<path d="M77.8467 454.391L76.9557 470.984L96.2225 471.356C100.454 471.43 102.719 466.381 99.7863 463.3C98.6726 462.112 97.3733 460.961 95.9626 459.959C89.726 455.578 91.6192 457.62 91.0253 454.725C90.4313 452.015 86.6076 450.418 84.009 455.319C81.3362 455.319 77.8467 454.391 77.8467 454.391Z" fill="white"/>
<path d="M108.325 248.767C112.61 248.767 116.083 245.293 116.083 241.008C116.083 236.723 112.61 233.25 108.325 233.25C104.04 233.25 100.566 236.723 100.566 241.008C100.566 245.293 104.04 248.767 108.325 248.767Z" fill="#FF75A7"/>
<path d="M91.3223 249.138C95.6073 249.138 99.081 245.665 99.081 241.38C99.081 237.095 95.6073 233.621 91.3223 233.621C87.0373 233.621 83.5636 237.095 83.5636 241.38C83.5636 245.665 87.0373 249.138 91.3223 249.138Z" fill="#FF75A7"/>
</svg>
