<svg width="598" height="700" viewBox="0 0 598 700" fill="none" xmlns="http://www.w3.org/2000/svg">
<circle opacity="0.1" cx="360.5" cy="359.5" r="237.5" fill="white"/>
<circle opacity="0.2" cx="115.344" cy="328.344" r="75.9808" transform="rotate(-114.042 115.344 328.344)" fill="white"/>
<path d="M187.587 523.693H419.158C454.537 491.965 476.79 445.85 476.79 394.608C476.79 298.815 399.165 221.19 303.372 221.19C207.58 221.19 129.955 298.815 129.955 394.608C129.955 445.85 152.208 491.921 187.587 523.693Z" fill="#964CFF"/>
<path d="M368.349 285.385L280.641 318.678L237.395 204.761C236.309 201.936 237.743 198.72 240.611 197.633L318.019 168.252C320.844 167.165 324.061 168.6 325.147 171.468L368.349 285.385Z" fill="white"/>
<path d="M368.523 285.298L367.045 285.863L358.44 289.123L354.441 290.644L345.835 293.904L337.23 297.163L333.231 298.685L324.626 301.944L316.02 305.204L312.021 306.725L303.416 309.985L294.81 313.245L290.811 314.766L282.206 318.026L280.597 318.634L285.639 331.934C287.073 332.108 288.855 331.238 289.29 329.891L291.42 323.372L292.506 320.112C293.028 318.46 295.592 317.504 297.07 318.373L300.025 320.112L305.936 323.545C307.414 324.415 309.935 323.459 310.5 321.807L312.63 315.287L313.716 312.028C314.238 310.376 316.802 309.42 318.28 310.289L321.235 312.028L327.146 315.461C328.624 316.331 331.145 315.374 331.71 313.723L333.84 307.203L334.926 303.944C335.448 302.292 338.012 301.336 339.49 302.205L342.445 303.944L348.356 307.377C349.834 308.246 352.355 307.29 352.92 305.639L355.05 299.119L356.136 295.86C356.658 294.208 359.222 293.252 360.7 294.121L363.655 295.86L369.566 299.293C370.74 299.989 372.565 299.51 373.521 298.511L368.523 285.298Z" fill="white"/>
<path d="M311.63 232.447L273.426 246.964C272.339 247.398 271.079 246.833 270.688 245.747C270.253 244.66 270.818 243.4 271.905 243.008L310.109 228.492C311.195 228.057 312.456 228.622 312.847 229.709C313.282 230.795 312.717 232.012 311.63 232.447Z" fill="#5B27AD"/>
<path d="M307.588 248.789L278.294 259.915C277.207 260.35 275.947 259.785 275.556 258.699C275.121 257.612 275.686 256.352 276.773 255.96L306.067 244.834C307.153 244.399 308.414 244.964 308.805 246.051C309.24 247.137 308.718 248.398 307.588 248.789Z" fill="#5B27AD"/>
<path d="M322.452 258.003L283.249 272.867C282.162 273.302 280.902 272.737 280.511 271.65C280.076 270.564 280.641 269.304 281.727 268.912L320.931 254.048C322.018 253.613 323.278 254.178 323.669 255.265C324.104 256.352 323.582 257.568 322.452 258.003Z" fill="#5B27AD"/>
<path d="M326.364 226.84L322.713 228.231C321.627 228.666 320.366 228.101 319.975 227.014C319.54 225.927 320.105 224.667 321.192 224.276L324.843 222.885C325.929 222.45 327.19 223.015 327.581 224.102C328.016 225.189 327.451 226.449 326.364 226.84Z" fill="#5B27AD"/>
<path d="M331.275 239.836L327.624 241.226C326.538 241.661 325.277 241.096 324.886 240.009C324.452 238.923 325.017 237.662 326.103 237.271L329.754 235.88C330.841 235.446 332.101 236.011 332.492 237.097C332.927 238.184 332.405 239.401 331.275 239.836Z" fill="#5B27AD"/>
<path d="M336.23 252.788L332.579 254.178C331.493 254.613 330.232 254.048 329.841 252.961C329.406 251.875 329.971 250.614 331.058 250.223L334.709 248.832C335.796 248.398 337.056 248.963 337.447 250.049C337.882 251.136 337.317 252.353 336.23 252.788Z" fill="#5B27AD"/>
<path d="M342.663 267.261L288.03 287.993C287.378 288.254 286.682 287.906 286.421 287.254C286.161 286.602 286.508 285.906 287.16 285.646L341.793 264.914C342.445 264.653 343.141 265.001 343.402 265.653C343.619 266.305 343.271 267 342.663 267.261Z" fill="#94A6FF"/>
<path d="M342.402 284.863C342.489 284.646 342.619 284.516 342.75 284.472C342.88 284.429 343.01 284.429 343.184 284.472C344.053 284.776 345.01 284.733 345.705 284.472C346.661 284.124 347.052 283.429 346.748 282.56C345.879 280.3 340.968 282.821 339.533 279.126C339.012 277.692 339.533 276.04 341.055 275.084L340.75 274.302C340.62 273.998 340.794 273.606 341.141 273.476L341.793 273.215C342.098 273.085 342.489 273.259 342.619 273.606L342.923 274.345C343.749 274.171 344.488 274.215 345.14 274.345C345.357 274.389 345.531 274.563 345.618 274.78C345.662 274.91 345.662 275.041 345.618 275.171L345.401 275.823C345.314 276.04 345.183 276.214 345.01 276.258C344.879 276.301 344.749 276.301 344.618 276.258C344.097 276.127 343.532 276.127 342.88 276.388C341.706 276.823 341.359 277.562 341.62 278.3C342.532 280.647 347.4 277.953 348.834 281.734C349.443 283.342 348.791 284.95 347.313 285.863L347.661 286.819C347.791 287.123 347.617 287.515 347.27 287.645L346.618 287.906C346.314 288.036 345.922 287.862 345.792 287.515L345.444 286.602C344.358 286.819 343.184 286.776 342.402 286.298C342.271 286.211 342.141 286.08 342.098 285.95C342.054 285.82 342.054 285.733 342.098 285.602L342.402 284.863Z" fill="#964CFF"/>
<path d="M260.947 204.543L257.127 205.992L268.214 235.211L272.034 233.762L260.947 204.543Z" fill="#6ACFA7"/>
<path d="M272.851 200.017L263.951 203.394L275.038 232.613L283.938 229.236L272.851 200.017Z" fill="#6ACFA7"/>
<path d="M277.994 198.08L275.637 198.974L286.724 228.193L289.081 227.299L277.994 198.08Z" fill="#6ACFA7"/>
<path d="M307.849 186.736L305.492 187.63L316.58 216.849L318.937 215.955L307.849 186.736Z" fill="#6ACFA7"/>
<path d="M312.776 184.91L310.419 185.805L321.507 215.023L323.864 214.129L312.776 184.91Z" fill="#6ACFA7"/>
<path d="M286.088 195.001L280.277 197.206L291.364 226.425L297.175 224.22L286.088 195.001Z" fill="#6ACFA7"/>
<path d="M291.53 192.929L288.604 194.039L299.692 223.258L302.618 222.148L291.53 192.929Z" fill="#6ACFA7"/>
<path d="M303.972 188.218L294.95 191.641L306.038 220.86L315.059 217.437L303.972 188.218Z" fill="#6ACFA7"/>
<path d="M129.955 522.997H490.046" stroke="#643FA0" stroke-width="6.08483" stroke-miterlimit="10" stroke-linecap="round"/>
<path d="M254.911 305.247C254.911 305.247 264.125 356.143 311.934 356.143" stroke="#D66B49" stroke-width="10.8658" stroke-miterlimit="10" stroke-linecap="round"/>
<path d="M260.213 245.008C253.39 228.318 228.876 231.621 215.533 236.924C205.884 240.748 201.19 247.789 202.799 258.568C204.016 266.826 211.1 272.52 209.405 281.212C207.449 291.557 201.277 297.25 209.188 307.594C211.274 310.333 214.012 311.289 214.403 315.07C214.838 319.199 211.709 323.285 212.013 327.674C212.925 339.887 227.746 345.711 238.308 341.8C248.956 337.888 250.999 323.806 249.565 313.853C248.522 306.377 244.088 299.684 244.784 291.861C245.479 284.255 250.086 277.822 253.563 271.085C257.127 264.305 262.386 251.918 260.213 245.008Z" fill="#3F2070"/>
<path d="M384.691 348.102L410.856 502.7" stroke="#94A6FF" stroke-width="13.0389" stroke-miterlimit="10" stroke-linecap="round"/>
<path d="M403.772 503.526L403.076 521.954L424.069 521.737C428.893 521.693 431.284 515.783 427.85 512.392C426.503 511.089 425.025 509.828 423.374 508.741C416.072 503.961 417.506 502.917 417.506 502.917C417.506 502.917 412.421 501.092 409.639 506.786C406.597 506.916 403.772 503.526 403.772 503.526Z" fill="#FAC46C"/>
<path d="M404.163 508.394L417.593 505.699C418.68 505.482 419.375 504.439 419.158 503.396L417.55 495.311C417.332 494.225 416.289 493.529 415.246 493.747L401.816 496.441C400.729 496.659 400.034 497.702 400.251 498.745L401.859 506.829C402.033 507.916 403.076 508.611 404.163 508.394Z" fill="#7A90DD"/>
<path d="M365.046 348.102L338.881 502.7" stroke="#94A6FF" stroke-width="13.0389" stroke-miterlimit="10" stroke-linecap="round"/>
<path d="M243.002 348.102L216.837 502.7" stroke="#D66B49" stroke-width="11.735" stroke-miterlimit="10" stroke-linecap="round"/>
<path d="M251.608 348.102L277.772 502.7" stroke="#D66B49" stroke-width="11.735" stroke-miterlimit="10" stroke-linecap="round"/>
<path d="M220.445 447.98L211.361 501.7C210.796 505.004 213.012 508.133 216.359 508.698C216.707 508.741 217.054 508.785 217.402 508.785C220.314 508.785 222.878 506.699 223.4 503.7L232.875 447.806C228.659 447.893 224.574 447.937 220.445 447.98Z" fill="white"/>
<path d="M275.078 447.111C270.992 447.198 266.863 447.241 262.778 447.328L272.339 503.7C272.861 506.655 275.425 508.785 278.337 508.785C278.685 508.785 279.033 508.741 279.38 508.698C282.684 508.133 284.944 505.004 284.379 501.7L275.078 447.111Z" fill="white"/>
<path d="M214.273 287.471L164.812 303.9C163.378 304.378 161.813 303.596 161.335 302.162L151.034 271.172C150.556 269.738 151.338 268.173 152.773 267.695L202.234 251.266C203.668 250.788 205.233 251.571 205.711 253.005L216.011 283.994C216.446 285.428 215.707 286.993 214.273 287.471Z" fill="white"/>
<path d="M206.942 256.957L152.296 275.12L154.489 281.719L209.135 263.555L206.942 256.957Z" fill="#964CFF"/>
<path d="M206.45 283.081L197.583 286.037C196.496 286.385 195.28 285.82 194.932 284.69L193.193 279.43C192.846 278.344 193.411 277.127 194.541 276.779L203.407 273.824C204.494 273.476 205.711 274.041 206.058 275.171L207.797 280.43C208.145 281.56 207.536 282.734 206.45 283.081Z" fill="#964CFF"/>
<path d="M228.746 362.706C237.134 362.619 264.603 362.314 272.991 362.445L260.126 308.333C260.126 307.812 260.126 307.29 260.083 306.769C259.344 298.337 251.868 292.122 243.437 292.861C235.005 293.599 228.789 301.075 229.528 309.507L228.746 362.706Z" fill="#FAC46C"/>
<path d="M233.788 362.879L230.093 384.785H242.872L244.088 377.527C244.871 377.7 245.653 377.787 246.435 377.787C247.609 377.787 248.739 377.657 249.826 377.353L251.086 384.785H263.864L260.17 362.879H233.788Z" fill="#94A6FF"/>
<path d="M345.966 503.526L346.661 521.954L325.669 521.737C320.844 521.693 318.454 515.783 321.887 512.392C323.235 511.089 324.712 509.828 326.364 508.741C333.666 503.961 332.232 502.917 332.232 502.917C332.232 502.917 337.317 501.092 340.098 506.786C343.141 506.916 345.966 503.526 345.966 503.526Z" fill="#FAC46C"/>
<path d="M348.53 359.402H397.513C396.731 348.406 397.904 286.776 397.904 286.776C397.904 286.776 393.862 275.475 398.687 276.084C407.466 277.257 392.689 267 383.953 265.479C375.217 263.958 368.61 269.434 367.524 272.042C366.872 273.606 365.437 288.645 365.307 290.253C365.22 291.079 364.829 287.08 364.785 287.906L364.612 290.253L364.525 291.426L364.481 292.6L364.351 294.903C364.307 296.424 364.22 299.467 364.22 299.467L348.53 359.402Z" fill="#5B27AD"/>
<path d="M236.526 283.516L239.003 294.686C239.699 297.772 242.48 299.902 245.61 299.771C248.913 299.597 251.521 296.903 251.564 293.556L251.738 283.646L236.526 283.516Z" fill="#C15F38"/>
<path d="M267.645 274.78C270.598 274.78 272.991 272.386 272.991 269.434C272.991 266.481 270.598 264.088 267.645 264.088C264.693 264.088 262.3 266.481 262.3 269.434C262.3 272.386 264.693 274.78 267.645 274.78Z" fill="white"/>
<path d="M236.265 248.094C237.352 247.398 237.96 246.268 238.873 245.355C241.09 243.139 240.046 243.617 242.437 241.705C249.695 235.924 258.909 236.315 263.821 239.184C276.468 246.529 267.254 274.432 262.126 278.952C253.477 286.558 239.655 276.736 236.961 266.218C235.352 259.785 233.57 254.265 236.265 248.094Z" fill="#3F2070"/>
<path d="M245.479 289.166C258.321 289.166 268.732 278.756 268.732 265.913C268.732 253.071 258.321 242.661 245.479 242.661C232.637 242.661 222.227 253.071 222.227 265.913C222.227 278.756 232.637 289.166 245.479 289.166Z" fill="#D66B49"/>
<path d="M237.873 277.735C238.873 280.647 242.002 282.647 245.219 282.56C248.609 282.473 250.608 281.386 251.303 278.213C248.218 277.388 240.22 276.649 237.873 277.735Z" fill="white"/>
<path d="M260.996 262.871C260.822 262.349 260.387 261.958 259.779 261.871C258.953 261.741 258.214 262.306 258.084 263.132" stroke="#3F2070" stroke-width="0.869261" stroke-miterlimit="10" stroke-linecap="round"/>
<path d="M243.002 265.522C242.741 265.044 242.22 264.74 241.611 264.783C240.785 264.827 240.133 265.522 240.177 266.348" stroke="#3F2070" stroke-width="0.869261" stroke-miterlimit="10" stroke-linecap="round"/>
<path d="M260.431 268.13C265.447 268.13 269.514 264.063 269.514 259.046C269.514 254.029 265.447 249.962 260.431 249.962C255.414 249.962 251.347 254.029 251.347 259.046C251.347 264.063 255.414 268.13 260.431 268.13Z" fill="#FF75A7"/>
<path d="M247.826 241.183C247.826 241.183 244.654 253.831 234.092 254.7C223.53 255.613 222.183 267.261 222.183 267.261L214.316 262.784L232.31 240.183L247.826 241.183Z" fill="#3F2070"/>
<path d="M240.742 270.912C245.759 270.912 249.826 266.845 249.826 261.828C249.826 256.811 245.759 252.744 240.742 252.744C235.725 252.744 231.658 256.811 231.658 261.828C231.658 266.845 235.725 270.912 240.742 270.912Z" fill="#FF75A7"/>
<path d="M226.225 274.096C227.567 272.373 226.829 269.553 224.575 267.798C222.322 266.042 219.407 266.016 218.065 267.74C216.722 269.463 217.461 272.283 219.714 274.038C221.968 275.793 224.883 275.819 226.225 274.096Z" fill="#E27C54"/>
<path d="M223.4 282.56C226.353 282.56 228.746 280.166 228.746 277.214C228.746 274.261 226.353 271.868 223.4 271.868C220.448 271.868 218.054 274.261 218.054 277.214C218.054 280.166 220.448 282.56 223.4 282.56Z" fill="white"/>
<path d="M371.566 276.997C371.566 276.997 348.878 333.585 311.934 356.143" stroke="#FC97C1" stroke-width="12.1697" stroke-miterlimit="10" stroke-linecap="round"/>
<path d="M234.048 305.247C234.048 305.247 214.316 337.193 196.975 331.151C179.633 325.11 187.76 294.556 187.76 294.556" stroke="#D66B49" stroke-width="10.8658" stroke-miterlimit="10" stroke-linecap="round"/>
<path d="M252.042 316.418C255.432 313.81 261.126 315.548 264.733 313.288C263.864 310.42 261.213 304.291 261.169 304.204C260.561 300.901 258.127 299.206 254.085 295.99C251.477 293.904 248.609 303.074 249.217 306.421C249.217 306.638 249.999 310.68 252.042 316.418Z" fill="#FAC46C"/>
<path d="M232.223 318.373C236.526 313.071 239.264 308.681 239.438 308.42C241.22 305.552 240.307 301.814 237.439 300.032C234.57 298.25 234.396 296.468 232.31 299.119C228.789 303.596 225.791 306.899 223.574 309.724C226.486 312.636 229.354 315.505 232.223 318.373Z" fill="#FAC46C"/>
<path d="M361.091 311.941C371.479 294.947 377.259 280.647 377.737 279.43C379.085 276.084 377.477 272.302 374.13 270.955C370.783 269.608 367.002 271.259 365.655 274.563C365.568 274.823 360.526 287.167 351.573 302.335C354.789 305.552 357.918 308.768 361.091 311.941Z" fill="#5B27AD"/>
<path d="M391.689 255.526L388.864 266.522C388.082 269.564 385.257 271.651 382.214 271.433C378.998 271.216 376.52 268.521 376.607 265.218L376.781 255.439L391.689 255.526Z" fill="#F985BA"/>
<path d="M408.683 237.967C407.249 250.919 395.601 260.263 382.649 258.872C369.697 257.438 360.352 245.79 361.743 232.838C363.612 215.67 374.608 212.193 387.56 213.584C395.383 214.453 402.729 213.845 406.466 219.234C408.987 222.755 409.552 229.926 408.683 237.967Z" fill="#3F2070"/>
<path d="M384.865 262.176C397.899 262.176 408.466 251.609 408.466 238.575C408.466 225.541 397.899 214.975 384.865 214.975C371.831 214.975 361.265 225.541 361.265 238.575C361.265 251.609 371.831 262.176 384.865 262.176Z" fill="#FC97C1"/>
<path d="M370.001 235.315C370.865 235.315 371.566 234.615 371.566 233.751C371.566 232.887 370.865 232.186 370.001 232.186C369.137 232.186 368.436 232.887 368.436 233.751C368.436 234.615 369.137 235.315 370.001 235.315Z" fill="#3F2070"/>
<path d="M391.428 236.098C392.292 236.098 392.993 235.397 392.993 234.533C392.993 233.669 392.292 232.968 391.428 232.968C390.564 232.968 389.864 233.669 389.864 234.533C389.864 235.397 390.564 236.098 391.428 236.098Z" fill="#3F2070"/>
<path d="M408.162 234.794C408.031 236.011 407.205 241.531 405.51 240.835C404.119 241.053 402.077 240.792 400.512 240.574C402.685 223.407 391.906 220.886 381.649 222.363C369.349 224.145 360.004 212.845 360.004 212.845C360.004 212.845 370.827 206.847 383.17 208.195C395.557 209.542 410.943 209.411 408.162 234.794Z" fill="#3F2070"/>
<path d="M412.803 241.874C414.308 238.656 413.606 235.148 411.236 234.04C408.866 232.932 405.725 234.642 404.22 237.861C402.715 241.079 403.416 244.586 405.787 245.695C408.157 246.803 411.298 245.092 412.803 241.874Z" fill="#FC97C1"/>
<path d="M365.968 240.958C368.405 240.006 369.333 236.552 368.041 233.243C366.748 229.934 363.725 228.023 361.288 228.975C358.85 229.926 357.922 233.381 359.215 236.69C360.507 239.999 363.531 241.91 365.968 240.958Z" fill="#FC97C1"/>
<path d="M383.779 247.789C382.692 251.788 379.606 254.178 376.477 253.613C373.217 253.005 371.348 251.179 370.827 246.529C373.869 245.747 381.562 245.92 383.779 247.789Z" fill="white"/>
<path d="M345.575 508.394L332.145 505.699C331.058 505.482 330.363 504.439 330.58 503.396L332.188 495.311C332.405 494.225 333.448 493.529 334.492 493.747L347.922 496.441C349.008 496.659 349.704 497.702 349.486 498.745L347.878 506.829C347.704 507.916 346.661 508.611 345.575 508.394Z" fill="#7A90DD"/>
<path d="M223.139 503.526C226.616 511.045 224.009 521.954 224.009 521.954H202.972C198.148 521.954 195.671 516.087 199.104 512.653C200.408 511.349 201.886 510.045 203.581 508.959C209.448 505.047 208.796 502.7 208.796 502.7C208.796 502.7 214.447 501.222 217.272 506.873C220.358 506.916 221.27 499.44 223.139 503.526Z" fill="#C6A1FC"/>
<path d="M271.601 503.526C268.124 511.045 270.731 521.954 270.731 521.954H291.767C296.592 521.954 299.069 516.087 295.636 512.653C294.332 511.349 292.854 510.045 291.159 508.959C285.291 505.047 285.943 502.7 285.943 502.7C285.943 502.7 280.293 501.222 277.468 506.873C274.382 506.916 273.47 499.44 271.601 503.526Z" fill="#C6A1FC"/>
<path d="M464.359 266.913L414.116 280.865C412.638 281.256 411.16 280.43 410.726 278.952L401.99 247.485C401.599 246.007 402.424 244.53 403.902 244.095L454.145 230.143C455.623 229.752 457.101 230.578 457.536 232.056L466.272 263.523C466.663 265.001 465.837 266.478 464.359 266.913Z" fill="white"/>
<path d="M458.656 236.077L403.169 251.5L405.032 258.2L460.518 242.778L458.656 236.077Z" fill="#964CFF"/>
<path d="M456.797 262.132L447.8 264.61C446.67 264.914 445.54 264.262 445.236 263.132L443.758 257.786C443.454 256.656 444.105 255.526 445.236 255.222L454.232 252.744C455.362 252.44 456.492 253.092 456.797 254.222L458.274 259.568C458.579 260.698 457.927 261.828 456.797 262.132Z" fill="#964CFF"/>
<path d="M397.513 279.43C397.513 279.43 414.855 308.855 432.197 302.814C449.538 296.772 437.108 272.042 437.108 272.042" stroke="#FC97C1" stroke-width="12.1697" stroke-miterlimit="10" stroke-linecap="round"/>
<path d="M420.809 309.072C421.113 304.552 421.505 300.075 422.026 295.599C418.81 294.034 415.724 291.383 413.247 288.905C407.336 282.951 403.25 276.127 403.207 276.04C401.381 272.954 397.383 271.911 394.297 273.737C391.211 275.562 390.168 279.561 391.993 282.647C392.167 282.994 396.818 290.774 403.815 297.859C410.074 304.248 415.811 307.595 420.809 309.072Z" fill="#5B27AD"/>
<path d="M460.534 501.44C470.328 501.44 478.267 493.5 478.267 483.707C478.267 473.913 470.328 465.974 460.534 465.974C450.741 465.974 442.802 473.913 442.802 483.707C442.802 493.5 450.741 501.44 460.534 501.44Z" fill="white"/>
<path d="M450.755 477.318C451.403 477.318 451.929 476.792 451.929 476.144C451.929 475.496 451.403 474.971 450.755 474.971C450.107 474.971 449.582 475.496 449.582 476.144C449.582 476.792 450.107 477.318 450.755 477.318Z" fill="#5B27AD"/>
<path d="M466.141 482.273C466.789 482.273 467.315 481.747 467.315 481.099C467.315 480.451 466.789 479.926 466.141 479.926C465.493 479.926 464.968 480.451 464.968 481.099C464.968 481.747 465.493 482.273 466.141 482.273Z" fill="#5B27AD"/>
<path d="M454.537 482.751L456.145 483.446C456.579 483.62 456.623 484.185 456.232 484.446L454.623 485.532C454.232 485.793 453.754 485.532 453.754 485.054V483.272C453.754 482.881 454.145 482.62 454.537 482.751Z" fill="#FF75A7"/>
<path d="M471.357 523.215H450.755L459.1 492.312H465.098C474.616 492.312 482.309 500.005 482.309 509.524V512.262C482.309 518.303 477.442 523.215 471.357 523.215Z" fill="white"/>
<path d="M469.271 498.093C469.271 498.223 469.271 498.267 469.271 498.31C469.271 498.31 469.271 498.354 469.271 498.397C469.314 498.788 469.444 499.223 469.531 499.614C469.618 499.875 469.705 500.179 469.792 500.44C469.792 500.397 470.183 501.135 470.183 501.135C470.922 502.396 471.4 502.917 472.617 503.482C472.226 503.309 473.182 503.656 473.226 503.656C473.356 503.7 474.095 503.787 473.965 503.787C474.443 503.83 474.964 503.787 475.442 503.743C475.399 503.743 476.138 503.613 476.225 503.569C476.616 503.483 477.05 503.352 477.442 503.222C478.311 502.961 478.485 502.874 479.093 502.57C479.658 502.309 480.18 502.005 480.745 501.7C478.745 497.702 475.182 494.573 470.879 493.095C469.705 494.486 469.357 496.094 469.271 498.093Z" fill="#5B27AD"/>
<path d="M462.968 523.215H442.715C440.628 523.215 438.933 521.52 438.933 519.433C438.933 517.347 440.628 515.652 442.715 515.652H462.968C465.055 515.652 466.75 517.347 466.75 519.433C466.75 521.476 465.055 523.215 462.968 523.215Z" fill="white"/>
<path d="M475.92 481.012C478.609 481.012 480.788 478.833 480.788 476.144C480.788 473.456 478.609 471.276 475.92 471.276C473.232 471.276 471.053 473.456 471.053 476.144C471.053 478.833 473.232 481.012 475.92 481.012Z" fill="white"/>
<path d="M455.145 471.407C457.641 471.407 459.665 469.383 459.665 466.887C459.665 464.39 457.641 462.366 455.145 462.366C452.649 462.366 450.625 464.39 450.625 466.887C450.625 469.383 452.649 471.407 455.145 471.407Z" fill="white"/>
<path d="M331.884 214.41C331.884 182.377 357.875 156.387 389.907 156.387C421.939 156.387 447.93 182.377 447.93 214.41" stroke="white" stroke-width="3.47704" stroke-miterlimit="10"/>
<path d="M293.593 311.941C294.419 347.754 266.037 377.483 230.224 378.265C194.41 379.048 164.682 350.71 163.899 314.896" stroke="white" stroke-width="3.47704" stroke-miterlimit="10"/>
<path d="M163.117 310.202C164.16 308.725 166.377 308.898 167.159 310.55L169.636 315.852L172.114 321.155C172.896 322.763 171.592 324.632 169.81 324.458L163.986 323.98L158.162 323.502C156.38 323.372 155.424 321.329 156.424 319.851L159.77 315.07L163.117 310.202Z" fill="white"/>
<path d="M449.929 224.884C449.017 226.449 446.8 226.449 445.887 224.884L442.975 219.843L440.063 214.801C439.151 213.236 440.281 211.28 442.106 211.28H447.93H453.754C455.536 211.28 456.666 213.236 455.797 214.801L452.885 219.843L449.929 224.884Z" fill="white"/>
<path d="M333.014 211.758C336.278 211.758 338.925 209.112 338.925 205.847C338.925 202.583 336.278 199.937 333.014 199.937C329.749 199.937 327.103 202.583 327.103 205.847C327.103 209.112 329.749 211.758 333.014 211.758Z" fill="white" stroke="#964CFF" stroke-width="2.60778" stroke-miterlimit="10"/>
<path d="M292.463 324.284C295.727 324.284 298.374 321.638 298.374 318.373C298.374 315.109 295.727 312.462 292.463 312.462C289.198 312.462 286.552 315.109 286.552 318.373C286.552 321.638 289.198 324.284 292.463 324.284Z" fill="white" stroke="#964CFF" stroke-width="2.60778" stroke-miterlimit="10"/>
<path d="M422.504 374.788C423.156 374.441 423.852 374.397 424.373 374.571C424.851 374.745 425.243 375.093 425.547 375.701C427.068 378.657 429.719 380.83 432.24 381.829C435.63 383.133 438.368 382.264 439.585 379.222C442.715 371.224 423.547 365.965 428.72 352.709C430.719 347.58 436.152 344.582 442.541 345.625L443.627 342.843C444.062 341.67 445.453 341.061 446.626 341.539L449.017 342.452C450.19 342.886 450.799 344.277 450.321 345.451L449.278 348.102C451.842 349.623 453.798 351.492 455.102 353.448C455.536 354.1 455.667 354.926 455.362 355.708C455.189 356.099 454.884 356.534 454.406 356.795L452.32 358.055C451.538 358.49 450.842 358.533 450.277 358.316C449.886 358.142 449.495 357.794 449.191 357.36C448.104 355.708 446.626 354.491 444.236 353.535C440.107 351.927 437.369 352.926 436.326 355.578C433.022 364.01 452.494 368.53 447.191 382.09C444.931 387.914 439.325 390.522 433.109 389.435L431.805 392.782C431.371 393.956 429.98 394.564 428.806 394.086L426.416 393.173C425.242 392.739 424.634 391.348 425.112 390.174L426.416 386.871C423.026 384.872 420.027 381.829 419.114 378.7C418.94 378.092 418.94 377.483 419.114 376.962C419.288 376.57 419.505 376.266 419.94 376.005L422.504 374.788Z" fill="#FAC46C"/>
<path d="M167.594 412.862C167.767 412.34 168.115 411.993 168.506 411.819C168.854 411.688 169.245 411.689 169.68 411.862C171.94 412.688 174.417 412.558 176.286 411.862C178.764 410.906 179.807 409.081 178.937 406.864C176.677 400.997 163.769 407.603 160.074 397.954C158.64 394.216 160.074 389.914 164.03 387.349L163.247 385.306C162.943 384.437 163.378 383.437 164.203 383.133L165.942 382.481C166.811 382.177 167.811 382.612 168.115 383.438L168.854 385.393C170.984 384.959 172.939 385.002 174.591 385.437C175.113 385.567 175.634 385.958 175.852 386.523C175.982 386.828 176.025 387.175 175.852 387.567L175.33 389.262C175.113 389.87 174.765 390.261 174.374 390.435C174.07 390.565 173.678 390.565 173.331 390.435C171.94 390.087 170.549 390.131 168.81 390.826C165.812 392 164.812 393.869 165.551 395.824C167.898 401.996 180.632 394.868 184.414 404.734C186.022 408.994 184.327 413.123 180.459 415.6L181.415 418.078C181.719 418.947 181.284 419.946 180.459 420.251L178.72 420.903C177.851 421.207 176.851 420.772 176.547 419.946L175.634 417.513C172.853 418.078 169.723 417.947 167.68 416.73C167.289 416.469 166.985 416.165 166.855 415.774C166.724 415.47 166.724 415.209 166.855 414.861L167.594 412.862Z" fill="#5B27AD"/>
<path d="M114.873 336.584C120.106 336.584 124.348 332.342 124.348 327.109C124.348 321.877 120.106 317.634 114.873 317.634C109.64 317.634 105.398 321.877 105.398 327.109C105.398 332.342 109.64 336.584 114.873 336.584Z" fill="#964CFF"/>
<path d="M507.735 365.618C511.216 365.618 514.038 362.796 514.038 359.316C514.038 355.835 511.216 353.013 507.735 353.013C504.255 353.013 501.433 355.835 501.433 359.316C501.433 362.796 504.255 365.618 507.735 365.618Z" fill="#964CFF"/>
<path d="M321.018 436.854C326.011 436.854 330.058 432.806 330.058 427.813C330.058 422.82 326.011 418.773 321.018 418.773C316.025 418.773 311.978 422.82 311.978 427.813C311.978 432.806 316.025 436.854 321.018 436.854Z" fill="#FAC46C"/>
<path d="M297.461 391.565C300.414 391.565 302.807 389.172 302.807 386.219C302.807 383.267 300.414 380.873 297.461 380.873C294.509 380.873 292.115 383.267 292.115 386.219C292.115 389.172 294.509 391.565 297.461 391.565Z" fill="white"/>
<path d="M450.973 427.292C454.453 427.292 457.275 424.47 457.275 420.99C457.275 417.509 454.453 414.687 450.973 414.687C447.492 414.687 444.67 417.509 444.67 420.99C444.67 424.47 447.492 427.292 450.973 427.292Z" fill="white"/>
<path d="M177.764 220.668C180.716 220.668 183.11 218.275 183.11 215.322C183.11 212.37 180.716 209.976 177.764 209.976C174.811 209.976 172.418 212.37 172.418 215.322C172.418 218.275 174.811 220.668 177.764 220.668Z" fill="white"/>
</svg>
