<svg width="31" height="23" viewBox="0 0 31 23" fill="none"
  xmlns="http://www.w3.org/2000/svg">
  <path d="M0.732 9.616H2.472V6.424C2.988 7 3.708 7.18 4.332 7.18C6.072 7.18 7.284 5.992 7.284 4.048C7.284 2.212 6.096 0.952 4.356 0.952C3.6 0.952 2.928 1.132 2.388 1.84L2.28 1.084H0.732V9.616ZM4.092 5.596C3.288 5.596 2.496 5.08 2.496 4.048C2.496 2.92 3.312 2.524 4.092 2.524C5.016 2.524 5.544 3.196 5.544 4.048C5.544 4.948 4.992 5.596 4.092 5.596ZM12.9918 1.072L12.9318 1.756C12.5958 1.216 11.8878 0.94 11.0958 0.94C9.39178 0.94 8.07178 2.104 8.07178 4.036C8.07178 5.992 9.35578 7.18 11.1318 7.18C11.7078 7.18 12.5718 6.928 12.9558 6.256L13.0518 7H14.6118V1.072H12.9918ZM11.3598 2.464C12.3798 2.464 12.9318 3.244 12.9318 4.096C12.9318 4.828 12.3318 5.596 11.3598 5.596C10.4958 5.596 9.79978 5.02 9.79978 4.036C9.79978 3.052 10.4958 2.464 11.3598 2.464ZM22.1558 1.072H20.2478L18.7958 4.804L17.3198 1.072H15.3758L17.8598 6.82L16.6358 9.664H18.5198L22.1558 1.072ZM3.084 11.452L1.356 11.644V13.108H0.3V14.548H1.356V16.828C1.356 18.676 2.328 19.24 3.612 19.18C4.08 19.144 4.428 19.096 4.86 18.916L4.464 17.476C4.272 17.572 3.948 17.62 3.744 17.62C3.42 17.62 3.072 17.452 3.072 16.828V14.548H4.584V13.108H3.084V11.452ZM7.06847 19.852H5.46047C5.42447 21.568 6.49247 22.576 8.55647 22.576C10.1765 22.576 11.7725 21.724 11.7725 19.96C11.7725 19.624 11.7725 18.628 10.4525 18.052C11.3525 17.584 11.7245 16.756 11.7245 15.856C11.7245 15.304 11.5085 14.752 11.1125 14.272L11.8685 13.372L10.6205 12.412L9.97247 13.252C9.58847 12.976 9.00047 12.928 8.58047 12.928C6.92447 12.928 5.37647 13.948 5.37647 15.952C5.37647 17.788 6.63647 18.94 8.58047 18.94C9.64847 18.94 10.0205 19.384 10.0205 19.96C10.0205 20.692 9.32447 21.052 8.55647 21.052C7.75247 21.052 7.12847 20.764 7.06847 19.852ZM8.58047 14.464C9.43247 14.464 10.0685 15.124 10.0685 15.952C10.0685 16.9 9.36047 17.368 8.58047 17.368C7.70447 17.368 7.04447 16.816 7.04447 15.952C7.04447 14.992 7.70447 14.464 8.58047 14.464ZM15.3418 11.452L13.6138 11.644V13.108H12.5578V14.548H13.6138V16.828C13.6138 18.676 14.5858 19.24 15.8698 19.18C16.3378 19.144 16.6858 19.096 17.1178 18.916L16.7218 17.476C16.5298 17.572 16.2058 17.62 16.0018 17.62C15.6778 17.62 15.3298 17.452 15.3298 16.828V14.548H16.8418V13.108H15.3418V11.452ZM19.7572 10.6H18.0172V19H19.7452V15.976C19.7452 15.016 20.3452 14.524 21.0652 14.524C21.7492 14.524 22.1932 14.98 22.1932 15.808V19H23.9212V15.796C23.9212 13.684 22.9492 12.952 21.5572 12.952C20.9452 12.952 20.2492 13.144 19.7572 13.78V10.6ZM26.9142 13.084H25.3062V19H27.0342V15.916C27.0342 15.028 27.6702 14.548 28.4142 14.548C28.7622 14.548 29.0862 14.644 29.3622 14.848L30.0822 13.48C29.6742 13.12 29.1942 12.94 28.6302 12.94C27.9582 12.94 27.4422 13.168 27.0462 13.732L26.9142 13.084Z" fill="#FFFFFF"/>
</svg>
